<svg width="165" height="156" viewBox="0 0 165 156" fill="none" xmlns="http://www.w3.org/2000/svg">
<mask id="path-1-inside-1_119_21820" fill="white">
<path d="M104.286 98.8841C103.316 100.43 102.323 101.935 101.414 103.49C100.06 105.808 99.0089 108.244 98.3884 110.883C98.0315 112.402 98.4762 113.715 98.8853 115.091C99.514 117.203 99.9396 119.354 99.8901 121.573C99.8352 124.031 99.0665 126.157 97.2463 127.906C94.888 130.172 92.5873 132.501 90.3059 134.841C88.7465 136.439 86.8411 137.173 84.6695 137.31C81.979 137.48 79.3846 136.931 76.8643 136.071C75.1374 135.484 73.4737 134.715 71.7605 134.088C71.4311 133.968 70.9451 134.023 70.6239 134.185C62.8544 138.09 53.2948 135.031 49.3085 127.321C47.7655 124.336 47.1643 121.164 47.6639 117.816C47.7381 117.321 47.5871 117.011 47.2357 116.681C40.6055 110.439 34.5985 103.655 29.5112 96.0827C26.6807 91.8641 24.1604 87.4642 22.3731 82.6799C21.2145 79.5764 20.358 76.4097 20.5639 73.0452C20.6956 70.8865 21.4479 69.0161 23.021 67.4754C25.4562 65.0942 27.8557 62.6745 30.2497 60.2521C31.6526 58.8322 33.3713 58.1373 35.3205 57.9588C38.1758 57.6979 40.9431 58.2197 43.6007 59.1837C45.0201 59.7001 46.3269 59.549 47.6859 59.1975C50.5055 58.4669 53.1164 57.2283 55.4692 55.5529C59.6724 52.5592 63.8043 49.4557 67.9114 46.3302C71.8594 43.3283 75.7771 40.288 80.0709 37.7804C83.4835 35.7892 87.0471 34.1661 90.9236 33.3092C95.7363 32.249 100.423 32.6528 104.939 34.6522C105.548 34.9214 105.801 34.7923 106.141 34.2842C108.5 30.7467 111.525 27.9618 115.457 26.248C116.816 25.6547 118.249 25.2949 119.729 25.5421C120.401 25.6547 121.167 25.8909 121.645 26.3386C123.484 28.0497 125.225 29.8678 126.996 31.6503C128.184 32.845 128.308 34.3171 128.017 35.8634C127.515 38.522 126.216 40.8153 124.453 42.7983C123.155 44.2594 121.648 45.5365 120.195 46.8575C119.855 47.1679 119.77 47.3656 120.02 47.7611C120.802 49.0135 120.786 49.0053 122.367 48.5027C125.195 47.6046 128.064 47.3821 130.815 48.618C133.686 49.9089 136.539 51.2794 139.249 52.8751C142.271 54.6548 143.4 57.6231 144.388 60.9024C145.695 65.2391 145.546 69.695 145.467 74.0752C144.001 83.0479 140.253 90.933 134.104 97.6344C131.386 100.595 128.245 103.015 124.448 104.459C120.764 105.86 116.005 106.167 112.762 103.699C110.607 102.551 109.134 101.944 106.982 100.787C106.067 100.301 105.271 99.5927 104.286 98.8841ZM97.7817 111.644C97.8887 111.323 97.9272 111.221 97.9574 111.12C98.2923 109.933 98.5449 108.716 98.9759 107.568C100.126 104.509 101.853 101.757 103.712 99.0901C104.014 98.6561 103.984 98.376 103.665 97.9558C102.575 96.5194 101.45 95.0967 100.502 93.5669C98.7179 90.6859 97.9025 87.4505 97.3808 84.1328C97.142 82.6249 96.7988 81.1254 96.6588 79.6093C96.5243 78.1592 96.5709 76.6871 96.5764 75.2259C96.5929 71.2216 97.3012 67.3573 98.9567 63.6907C100.928 59.3293 104.014 55.8962 107.802 53.0481C111.275 50.439 115.034 48.7746 119.52 49.4337C119.745 49.4667 120.072 49.3294 120.223 49.1591C120.3 49.0712 120.132 48.7032 120.006 48.5109C116.807 43.6716 112.791 39.6618 107.846 36.6214C104.689 34.6797 101.26 33.474 97.5318 33.2295C92.5489 32.8999 87.9448 34.243 83.5274 36.4045C78.4484 38.89 73.9431 42.2517 69.4654 45.6601C65.1743 48.9256 60.8969 52.2132 56.5317 55.3744C54.0278 57.1871 51.2797 58.6097 48.2789 59.4666C47.642 59.6479 46.9968 59.7907 46.3544 59.95C57.8604 65.1024 67.4996 72.7486 76.2822 81.5181C85.0704 90.2904 92.6697 99.9744 97.7817 111.644ZM145.42 68.8898C145.42 68.3625 145.418 67.1828 145.396 66.6555C145.234 63.0466 144.105 59.5839 142.664 56.4744C142.14 54.3417 136.179 49.8339 132.577 51.2783C130.073 51.3662 127.94 52.5125 125.769 53.688C121.005 56.267 117.433 60.1093 114.446 64.5449C111.794 68.4806 109.834 72.7514 108.511 77.3078C107.646 80.2877 106.35 84.2338 106.638 87.3895C106.66 87.6366 106.75 87.9167 106.638 88.1117C106.245 88.7791 106.608 90.3139 106.638 91.0006C106.767 94.1096 107.438 95.7468 108.8 98.5839C111.17 104.102 116.365 107.251 124.064 104.601C128.254 102.917 130.128 101.494 132.835 98.945C136.9 94.9728 140.28 89.8161 142.575 84.3863C144.87 78.9565 145.906 72.945 145.42 68.8898ZM91.5386 132.875C91.8186 132.677 91.9174 132.625 91.9916 132.55C93.8502 130.691 95.7226 128.843 97.562 126.964C98.6053 125.898 99.1214 124.561 99.3438 123.103C99.7831 120.221 99.2038 117.453 98.3582 114.729C96.9827 110.285 94.8578 106.192 92.4171 102.257C88.1644 95.3988 83.1513 89.1396 77.4518 83.4297C76.3399 82.3146 75.2966 81.1281 74.1573 80.0433C72.7736 78.7249 71.3268 77.4726 69.8936 76.2092C68.5237 75.0007 67.1729 73.7703 65.7481 72.6278C59.7218 67.7885 53.3607 63.4792 46.1704 60.524C43.2383 59.3183 40.2238 58.401 37.0309 58.2939C34.7138 58.217 32.5037 58.6317 30.7576 60.34C28.9621 62.1005 27.1968 63.8912 25.4205 65.6737C25.2915 65.8028 25.1926 65.9566 24.9812 66.223C25.3162 66.1818 25.4754 66.1818 25.6209 66.1378C27.2929 65.6435 28.9896 65.5913 30.7109 65.8083C34.3816 66.2724 37.7996 67.5275 41.1216 69.0903C46.8568 71.7901 52.0813 75.3056 57.056 79.2028C58.6511 80.4525 60.1721 81.7928 61.7178 83.1028C63.0383 84.2234 64.3561 85.3522 65.652 86.503C66.1105 86.9095 66.4756 87.4175 66.9176 87.8405C72.694 93.3774 77.9158 99.3949 82.4485 105.997C86.1493 111.389 89.4164 117.011 91.2228 123.361C91.9394 125.882 92.3649 128.453 91.9229 131.087C91.8351 131.622 91.6978 132.147 91.5386 132.875ZM47.9138 120.018C47.8946 128.417 54.824 135.346 63.1756 135.473C71.5738 135.599 78.9179 128.925 78.9783 119.991C79.0359 111.411 72.0296 104.405 63.4941 104.383C54.8597 104.363 47.933 111.315 47.9138 120.018ZM71.7303 133.644C72.952 134.152 73.9706 134.605 75.0111 135.003C77.9515 136.132 80.9577 136.972 84.1424 136.931C88.8014 136.873 91.5495 134.141 91.6786 129.496C91.7664 126.371 90.9648 123.424 89.8831 120.54C87.9585 115.412 85.2268 110.713 82.1163 106.231C77.1059 99.0104 71.3817 92.4052 64.853 86.514C62.9779 84.8194 61.1467 83.0726 59.2139 81.4467C57.4733 79.9801 55.6586 78.5959 53.8164 77.2583C48.2707 73.2237 42.4641 69.6451 35.9245 67.4287C33.0912 66.4674 30.1948 65.8769 27.1666 66.2038C23.949 66.5526 21.6044 68.8157 21.0882 71.9823C20.6627 74.6107 21.102 77.1402 21.7993 79.6395C23.0183 84.0119 25.0471 88.03 27.356 91.9108C31.1008 98.2057 35.5703 103.96 40.5451 109.318C42.7222 111.663 45.0228 113.891 47.2796 116.162C47.7271 116.613 47.8534 116.555 48.0154 115.94C48.1334 115.498 48.2185 115.036 48.4162 114.632C48.6743 114.102 48.5452 113.776 48.1334 113.383C44.3008 109.735 40.74 105.841 37.5196 101.642C33.6952 96.6512 30.2909 91.4109 28.133 85.4511C27.1913 82.8502 26.5434 80.1833 26.9223 77.3874C27.2654 74.8469 28.5942 73.0672 31.1173 72.3339C32.4955 71.9329 33.9066 71.9219 35.3342 72.0977C39.2135 72.5756 42.7002 74.196 46.1402 75.8933C47.9934 76.8079 49.7477 77.9422 51.4691 79.093C53.0944 80.1778 54.6456 81.378 56.1803 82.5892C58.0554 84.0723 59.9085 85.5884 61.7205 87.1484C65.4378 90.3453 68.8312 93.869 72.0076 97.5987C76.7572 103.174 80.9687 109.104 83.8377 115.899C84.9386 118.508 85.7814 121.199 85.8144 124.05C85.8638 128.34 83.5768 131.01 79.1594 131.01C78.0915 131.01 77.0208 130.85 75.9583 130.713C75.4833 130.65 75.1703 130.754 74.808 131.095C74.0283 131.828 73.1689 132.479 72.3426 133.16C72.1943 133.284 72.0406 133.399 71.7303 133.644ZM134.784 51.0597C134.573 50.9141 134.477 50.829 134.367 50.774C133.574 50.3703 132.764 49.994 131.981 49.5711C130.038 48.5192 127.968 48.1017 125.769 48.2583C122.768 48.4697 120.099 49.6068 117.609 51.2052C113.252 53.9984 109.933 57.7968 107.179 62.1252C103.607 67.739 101.373 73.8499 100.458 80.436C99.9972 83.7592 100.104 87.0935 100.736 90.3838C101.288 93.2483 102.397 95.8849 104.332 98.1316C105.73 99.7547 107.55 100.735 109.441 101.62C109.927 101.848 110.411 102.081 110.897 102.312C110.894 102.054 110.806 101.908 110.696 101.782C109.439 100.359 108.508 98.7385 107.863 96.9616C106.487 93.1797 106.152 89.2659 106.537 85.2863C106.776 82.8172 107.138 80.3728 107.822 77.9642C108.835 74.4047 110.169 70.9936 111.948 67.7555C114.883 62.4164 118.589 57.7391 123.729 54.3417C126.922 52.2297 130.375 50.9059 134.29 51.1366C134.411 51.1475 134.537 51.1009 134.784 51.0597ZM123.018 28.1238C122.922 28.4149 122.88 28.4781 122.886 28.5385C123.1 30.884 122.263 32.9411 121.126 34.9076C119.69 37.3932 117.777 39.4668 115.52 41.2273C115.097 41.5568 115.048 41.7628 115.435 42.1913C116.673 43.5645 117.867 44.979 119.059 46.3934C119.314 46.6955 119.514 46.8823 119.899 46.5911C123.155 44.1385 125.793 41.1916 127.218 37.3053C128.099 34.9049 127.987 32.7187 125.788 30.9417C124.805 30.1535 124 29.14 123.018 28.1238ZM108.601 36.55C108.722 36.3605 108.84 36.2204 108.906 36.0611C109.592 34.3913 110.704 33.04 112.096 31.9277C113.23 31.0214 114.452 30.2551 115.962 30.1699C117.532 30.0793 118.359 30.9445 118.227 32.5182C118.205 32.7654 118.155 33.018 118.081 33.257C117.357 35.619 115.797 37.33 113.801 38.6923C113.431 38.9449 113.041 39.1647 112.566 39.4585C113.093 39.9556 113.582 40.3621 114.004 40.8263C114.446 41.3124 114.809 41.3289 115.328 40.9004C117.228 39.3349 118.924 37.5909 120.269 35.5201C121.414 33.7596 122.315 31.903 122.49 29.7662C122.691 27.3356 121.288 25.7948 118.85 25.8717C118.128 25.8937 117.389 26.0337 116.7 26.248C113.722 27.1735 111.278 28.9615 109.161 31.1916C108.146 32.2628 107.284 33.4849 106.389 34.6659C106.284 34.806 106.314 35.2482 106.43 35.3223C107.122 35.7563 107.849 36.1325 108.601 36.55ZM77.3639 105.272C77.2871 105.127 77.2322 104.976 77.1416 104.852C75.8073 103.086 74.4675 101.323 73.1332 99.557C72.8587 99.1945 72.6336 99.145 72.359 99.5762C71.3295 101.194 70.2862 102.801 69.2402 104.407C68.9959 104.781 69.0398 105.014 69.4818 105.19C71.3926 105.951 73.0756 107.069 74.5416 108.508C74.8986 108.857 75.1237 108.837 75.3872 108.414C75.9638 107.483 76.5678 106.569 77.1608 105.649C77.2294 105.533 77.2871 105.41 77.3639 105.272Z"/>
</mask>
<path d="M104.286 98.8841C103.316 100.43 102.323 101.935 101.414 103.49C100.06 105.808 99.0089 108.244 98.3884 110.883C98.0315 112.402 98.4762 113.715 98.8853 115.091C99.514 117.203 99.9396 119.354 99.8901 121.573C99.8352 124.031 99.0665 126.157 97.2463 127.906C94.888 130.172 92.5873 132.501 90.3059 134.841C88.7465 136.439 86.8411 137.173 84.6695 137.31C81.979 137.48 79.3846 136.931 76.8643 136.071C75.1374 135.484 73.4737 134.715 71.7605 134.088C71.4311 133.968 70.9451 134.023 70.6239 134.185C62.8544 138.09 53.2948 135.031 49.3085 127.321C47.7655 124.336 47.1643 121.164 47.6639 117.816C47.7381 117.321 47.5871 117.011 47.2357 116.681C40.6055 110.439 34.5985 103.655 29.5112 96.0827C26.6807 91.8641 24.1604 87.4642 22.3731 82.6799C21.2145 79.5764 20.358 76.4097 20.5639 73.0452C20.6956 70.8865 21.4479 69.0161 23.021 67.4754C25.4562 65.0942 27.8557 62.6745 30.2497 60.2521C31.6526 58.8322 33.3713 58.1373 35.3205 57.9588C38.1758 57.6979 40.9431 58.2197 43.6007 59.1837C45.0201 59.7001 46.3269 59.549 47.6859 59.1975C50.5055 58.4669 53.1164 57.2283 55.4692 55.5529C59.6724 52.5592 63.8043 49.4557 67.9114 46.3302C71.8594 43.3283 75.7771 40.288 80.0709 37.7804C83.4835 35.7892 87.0471 34.1661 90.9236 33.3092C95.7363 32.249 100.423 32.6528 104.939 34.6522C105.548 34.9214 105.801 34.7923 106.141 34.2842C108.5 30.7467 111.525 27.9618 115.457 26.248C116.816 25.6547 118.249 25.2949 119.729 25.5421C120.401 25.6547 121.167 25.8909 121.645 26.3386C123.484 28.0497 125.225 29.8678 126.996 31.6503C128.184 32.845 128.308 34.3171 128.017 35.8634C127.515 38.522 126.216 40.8153 124.453 42.7983C123.155 44.2594 121.648 45.5365 120.195 46.8575C119.855 47.1679 119.77 47.3656 120.02 47.7611C120.802 49.0135 120.786 49.0053 122.367 48.5027C125.195 47.6046 128.064 47.3821 130.815 48.618C133.686 49.9089 136.539 51.2794 139.249 52.8751C142.271 54.6548 143.4 57.6231 144.388 60.9024C145.695 65.2391 145.546 69.695 145.467 74.0752C144.001 83.0479 140.253 90.933 134.104 97.6344C131.386 100.595 128.245 103.015 124.448 104.459C120.764 105.86 116.005 106.167 112.762 103.699C110.607 102.551 109.134 101.944 106.982 100.787C106.067 100.301 105.271 99.5927 104.286 98.8841ZM97.7817 111.644C97.8887 111.323 97.9272 111.221 97.9574 111.12C98.2923 109.933 98.5449 108.716 98.9759 107.568C100.126 104.509 101.853 101.757 103.712 99.0901C104.014 98.6561 103.984 98.376 103.665 97.9558C102.575 96.5194 101.45 95.0967 100.502 93.5669C98.7179 90.6859 97.9025 87.4505 97.3808 84.1328C97.142 82.6249 96.7988 81.1254 96.6588 79.6093C96.5243 78.1592 96.5709 76.6871 96.5764 75.2259C96.5929 71.2216 97.3012 67.3573 98.9567 63.6907C100.928 59.3293 104.014 55.8962 107.802 53.0481C111.275 50.439 115.034 48.7746 119.52 49.4337C119.745 49.4667 120.072 49.3294 120.223 49.1591C120.3 49.0712 120.132 48.7032 120.006 48.5109C116.807 43.6716 112.791 39.6618 107.846 36.6214C104.689 34.6797 101.26 33.474 97.5318 33.2295C92.5489 32.8999 87.9448 34.243 83.5274 36.4045C78.4484 38.89 73.9431 42.2517 69.4654 45.6601C65.1743 48.9256 60.8969 52.2132 56.5317 55.3744C54.0278 57.1871 51.2797 58.6097 48.2789 59.4666C47.642 59.6479 46.9968 59.7907 46.3544 59.95C57.8604 65.1024 67.4996 72.7486 76.2822 81.5181C85.0704 90.2904 92.6697 99.9744 97.7817 111.644ZM145.42 68.8898C145.42 68.3625 145.418 67.1828 145.396 66.6555C145.234 63.0466 144.105 59.5839 142.664 56.4744C142.14 54.3417 136.179 49.8339 132.577 51.2783C130.073 51.3662 127.94 52.5125 125.769 53.688C121.005 56.267 117.433 60.1093 114.446 64.5449C111.794 68.4806 109.834 72.7514 108.511 77.3078C107.646 80.2877 106.35 84.2338 106.638 87.3895C106.66 87.6366 106.75 87.9167 106.638 88.1117C106.245 88.7791 106.608 90.3139 106.638 91.0006C106.767 94.1096 107.438 95.7468 108.8 98.5839C111.17 104.102 116.365 107.251 124.064 104.601C128.254 102.917 130.128 101.494 132.835 98.945C136.9 94.9728 140.28 89.8161 142.575 84.3863C144.87 78.9565 145.906 72.945 145.42 68.8898ZM91.5386 132.875C91.8186 132.677 91.9174 132.625 91.9916 132.55C93.8502 130.691 95.7226 128.843 97.562 126.964C98.6053 125.898 99.1214 124.561 99.3438 123.103C99.7831 120.221 99.2038 117.453 98.3582 114.729C96.9827 110.285 94.8578 106.192 92.4171 102.257C88.1644 95.3988 83.1513 89.1396 77.4518 83.4297C76.3399 82.3146 75.2966 81.1281 74.1573 80.0433C72.7736 78.7249 71.3268 77.4726 69.8936 76.2092C68.5237 75.0007 67.1729 73.7703 65.7481 72.6278C59.7218 67.7885 53.3607 63.4792 46.1704 60.524C43.2383 59.3183 40.2238 58.401 37.0309 58.2939C34.7138 58.217 32.5037 58.6317 30.7576 60.34C28.9621 62.1005 27.1968 63.8912 25.4205 65.6737C25.2915 65.8028 25.1926 65.9566 24.9812 66.223C25.3162 66.1818 25.4754 66.1818 25.6209 66.1378C27.2929 65.6435 28.9896 65.5913 30.7109 65.8083C34.3816 66.2724 37.7996 67.5275 41.1216 69.0903C46.8568 71.7901 52.0813 75.3056 57.056 79.2028C58.6511 80.4525 60.1721 81.7928 61.7178 83.1028C63.0383 84.2234 64.3561 85.3522 65.652 86.503C66.1105 86.9095 66.4756 87.4175 66.9176 87.8405C72.694 93.3774 77.9158 99.3949 82.4485 105.997C86.1493 111.389 89.4164 117.011 91.2228 123.361C91.9394 125.882 92.3649 128.453 91.9229 131.087C91.8351 131.622 91.6978 132.147 91.5386 132.875ZM47.9138 120.018C47.8946 128.417 54.824 135.346 63.1756 135.473C71.5738 135.599 78.9179 128.925 78.9783 119.991C79.0359 111.411 72.0296 104.405 63.4941 104.383C54.8597 104.363 47.933 111.315 47.9138 120.018ZM71.7303 133.644C72.952 134.152 73.9706 134.605 75.0111 135.003C77.9515 136.132 80.9577 136.972 84.1424 136.931C88.8014 136.873 91.5495 134.141 91.6786 129.496C91.7664 126.371 90.9648 123.424 89.8831 120.54C87.9585 115.412 85.2268 110.713 82.1163 106.231C77.1059 99.0104 71.3817 92.4052 64.853 86.514C62.9779 84.8194 61.1467 83.0726 59.2139 81.4467C57.4733 79.9801 55.6586 78.5959 53.8164 77.2583C48.2707 73.2237 42.4641 69.6451 35.9245 67.4287C33.0912 66.4674 30.1948 65.8769 27.1666 66.2038C23.949 66.5526 21.6044 68.8157 21.0882 71.9823C20.6627 74.6107 21.102 77.1402 21.7993 79.6395C23.0183 84.0119 25.0471 88.03 27.356 91.9108C31.1008 98.2057 35.5703 103.96 40.5451 109.318C42.7222 111.663 45.0228 113.891 47.2796 116.162C47.7271 116.613 47.8534 116.555 48.0154 115.94C48.1334 115.498 48.2185 115.036 48.4162 114.632C48.6743 114.102 48.5452 113.776 48.1334 113.383C44.3008 109.735 40.74 105.841 37.5196 101.642C33.6952 96.6512 30.2909 91.4109 28.133 85.4511C27.1913 82.8502 26.5434 80.1833 26.9223 77.3874C27.2654 74.8469 28.5942 73.0672 31.1173 72.3339C32.4955 71.9329 33.9066 71.9219 35.3342 72.0977C39.2135 72.5756 42.7002 74.196 46.1402 75.8933C47.9934 76.8079 49.7477 77.9422 51.4691 79.093C53.0944 80.1778 54.6456 81.378 56.1803 82.5892C58.0554 84.0723 59.9085 85.5884 61.7205 87.1484C65.4378 90.3453 68.8312 93.869 72.0076 97.5987C76.7572 103.174 80.9687 109.104 83.8377 115.899C84.9386 118.508 85.7814 121.199 85.8144 124.05C85.8638 128.34 83.5768 131.01 79.1594 131.01C78.0915 131.01 77.0208 130.85 75.9583 130.713C75.4833 130.65 75.1703 130.754 74.808 131.095C74.0283 131.828 73.1689 132.479 72.3426 133.16C72.1943 133.284 72.0406 133.399 71.7303 133.644ZM134.784 51.0597C134.573 50.9141 134.477 50.829 134.367 50.774C133.574 50.3703 132.764 49.994 131.981 49.5711C130.038 48.5192 127.968 48.1017 125.769 48.2583C122.768 48.4697 120.099 49.6068 117.609 51.2052C113.252 53.9984 109.933 57.7968 107.179 62.1252C103.607 67.739 101.373 73.8499 100.458 80.436C99.9972 83.7592 100.104 87.0935 100.736 90.3838C101.288 93.2483 102.397 95.8849 104.332 98.1316C105.73 99.7547 107.55 100.735 109.441 101.62C109.927 101.848 110.411 102.081 110.897 102.312C110.894 102.054 110.806 101.908 110.696 101.782C109.439 100.359 108.508 98.7385 107.863 96.9616C106.487 93.1797 106.152 89.2659 106.537 85.2863C106.776 82.8172 107.138 80.3728 107.822 77.9642C108.835 74.4047 110.169 70.9936 111.948 67.7555C114.883 62.4164 118.589 57.7391 123.729 54.3417C126.922 52.2297 130.375 50.9059 134.29 51.1366C134.411 51.1475 134.537 51.1009 134.784 51.0597ZM123.018 28.1238C122.922 28.4149 122.88 28.4781 122.886 28.5385C123.1 30.884 122.263 32.9411 121.126 34.9076C119.69 37.3932 117.777 39.4668 115.52 41.2273C115.097 41.5568 115.048 41.7628 115.435 42.1913C116.673 43.5645 117.867 44.979 119.059 46.3934C119.314 46.6955 119.514 46.8823 119.899 46.5911C123.155 44.1385 125.793 41.1916 127.218 37.3053C128.099 34.9049 127.987 32.7187 125.788 30.9417C124.805 30.1535 124 29.14 123.018 28.1238ZM108.601 36.55C108.722 36.3605 108.84 36.2204 108.906 36.0611C109.592 34.3913 110.704 33.04 112.096 31.9277C113.23 31.0214 114.452 30.2551 115.962 30.1699C117.532 30.0793 118.359 30.9445 118.227 32.5182C118.205 32.7654 118.155 33.018 118.081 33.257C117.357 35.619 115.797 37.33 113.801 38.6923C113.431 38.9449 113.041 39.1647 112.566 39.4585C113.093 39.9556 113.582 40.3621 114.004 40.8263C114.446 41.3124 114.809 41.3289 115.328 40.9004C117.228 39.3349 118.924 37.5909 120.269 35.5201C121.414 33.7596 122.315 31.903 122.49 29.7662C122.691 27.3356 121.288 25.7948 118.85 25.8717C118.128 25.8937 117.389 26.0337 116.7 26.248C113.722 27.1735 111.278 28.9615 109.161 31.1916C108.146 32.2628 107.284 33.4849 106.389 34.6659C106.284 34.806 106.314 35.2482 106.43 35.3223C107.122 35.7563 107.849 36.1325 108.601 36.55ZM77.3639 105.272C77.2871 105.127 77.2322 104.976 77.1416 104.852C75.8073 103.086 74.4675 101.323 73.1332 99.557C72.8587 99.1945 72.6336 99.145 72.359 99.5762C71.3295 101.194 70.2862 102.801 69.2402 104.407C68.9959 104.781 69.0398 105.014 69.4818 105.19C71.3926 105.951 73.0756 107.069 74.5416 108.508C74.8986 108.857 75.1237 108.837 75.3872 108.414C75.9638 107.483 76.5678 106.569 77.1608 105.649C77.2294 105.533 77.2871 105.41 77.3639 105.272Z" fill="#878787" stroke="white" stroke-width="0.6" mask="url(#path-1-inside-1_119_21820)"/>
<path d="M97.9996 115.09L97.6332 114.253C92.5352 102.615 84.7857 90.5046 76.0314 81.766L76.0313 81.766C67.2805 73.0282 55.9983 65.3988 44.5289 60.2656L43.6021 59.8508L44.5876 59.6064C44.9163 59.5249 45.6165 59.4522 46.2962 59.3816C46.3444 59.3766 46.3925 59.3716 46.4404 59.3666C46.8115 59.3279 47.1778 59.289 47.4902 59.2487C47.8097 59.2074 48.0493 59.1674 48.1791 59.1303L48.1792 59.1303C51.1353 58.2861 53.8471 56.8834 56.3228 55.0911L56.3228 55.0911C60.037 52.403 63.6835 49.6237 67.334 46.8412C67.9724 46.3547 68.6108 45.868 69.2498 45.3818L69.2499 45.3817C73.7254 41.9778 78.2533 38.5929 83.37 36.0903C87.8218 33.9119 92.488 32.5456 97.5513 32.8805L97.5513 32.8805C101.346 33.1319 104.826 34.3584 108.026 36.3234L108.026 36.3234C113.017 39.3897 117.07 43.4394 120.294 48.318L97.9996 115.09ZM97.9996 115.09L98.2861 114.223M97.9996 115.09L98.2861 114.223M98.2861 114.223C98.342 114.053 98.3191 113.866 98.3002 113.729C98.2918 113.668 98.2826 113.609 98.273 113.548C98.2559 113.438 98.2375 113.32 98.2204 113.171C98.1703 112.734 98.1436 112.106 98.2958 111.197M98.2861 114.223L97.854 113.025M120.483 49.3897L120.481 49.3915C120.36 49.5278 120.191 49.6319 120.027 49.6977C119.865 49.7628 119.662 49.8087 119.466 49.7804L119.465 49.7802C115.108 49.1373 111.443 50.7485 108.009 53.3281C104.256 56.1493 101.214 59.5388 99.2721 63.835C97.6399 67.4499 96.9391 71.2644 96.9228 75.2276C96.9218 75.502 96.9193 75.7754 96.9169 76.048C96.9063 77.2401 96.8958 78.4147 97.0037 79.5772L97.0037 79.5773C97.0937 80.5525 97.2677 81.5062 97.4448 82.4771C97.5409 83.0039 97.638 83.5358 97.723 84.0788M120.483 49.3897L97.3772 84.133M120.483 49.3897C120.552 49.3101 120.576 49.2215 120.584 49.1622M120.483 49.3897L120.584 49.1622M97.723 84.0788L97.3772 84.133M97.723 84.0788C97.723 84.0788 97.723 84.0787 97.723 84.0786L97.3772 84.133M97.723 84.0788C98.2419 87.3792 99.0481 90.5604 100.796 93.3828L100.796 93.3829C101.591 94.6663 102.512 95.8727 103.443 97.0919C103.609 97.3089 103.775 97.5262 103.94 97.7444L103.94 97.7446C104.114 97.9731 104.252 98.2171 104.267 98.499C104.283 98.7873 104.167 99.0439 103.995 99.2902L103.995 99.2904C102.142 101.95 100.435 104.676 99.2999 107.692L99.2997 107.692C99.0095 108.46 98.8069 109.247 98.5988 110.056C98.5021 110.431 98.4042 110.812 98.2958 111.197M97.3772 84.133C97.8988 87.4507 98.7142 90.6861 100.499 93.5671C101.303 94.8664 102.236 96.0883 103.167 97.3071C103.332 97.5234 103.497 97.7395 103.661 97.956C103.98 98.3762 104.01 98.6564 103.708 99.0903C101.85 101.757 100.123 104.512 98.9723 107.569C98.6753 108.355 98.4646 109.173 98.2537 109.991C98.1566 110.368 98.0594 110.746 97.9538 111.12M98.2958 111.197C98.2968 111.191 98.2978 111.184 98.2988 111.178L97.9538 111.12M98.2958 111.197C98.294 111.203 98.2923 111.209 98.2906 111.215L97.9538 111.12M97.9538 111.12C97.8123 111.955 97.8151 112.57 97.854 113.025M97.854 113.025C97.996 113.341 98.1362 113.657 98.2743 113.972L97.9538 114.113L97.854 113.025ZM120.584 49.1622C120.592 49.1016 120.589 49.0455 120.583 49.0019M120.584 49.1622L120.583 49.0019M120.583 49.0019C120.571 48.915 120.544 48.8271 120.515 48.7521M120.583 49.0019L120.515 48.7521M120.515 48.7521C120.458 48.5999 120.373 48.4366 120.294 48.3182L120.515 48.7521ZM96.5669 76.038C96.5562 77.2312 96.5455 78.4277 96.6552 79.6095L96.5728 75.2261C96.5718 75.4964 96.5694 75.7671 96.5669 76.038Z" fill="#EBEBEB" stroke="#EBEBEB" stroke-width="0.7"/>
<path d="M89.2494 135.379L89.4122 134.632C89.4405 134.502 89.503 134.358 89.5757 134.216C89.6506 134.07 89.7461 133.908 89.8527 133.739C90.0658 133.401 90.3341 133.017 90.5952 132.646C90.6229 132.606 90.6506 132.567 90.6781 132.528C90.9118 132.196 91.1347 131.88 91.3099 131.611C91.4077 131.461 91.4873 131.331 91.544 131.226C91.5723 131.173 91.5932 131.13 91.6074 131.095C91.6144 131.078 91.6192 131.065 91.6224 131.055C91.6256 131.045 91.6263 131.04 91.6262 131.041L91.6264 131.04C92.0578 128.469 91.6447 125.948 90.9336 123.446M89.2494 135.379L91.2221 123.364M89.2494 135.379L89.8767 134.942M89.2494 135.379L89.8767 134.942M90.9336 123.446L91.2221 123.364M90.9336 123.446C90.9336 123.446 90.9336 123.446 90.9336 123.446L91.2221 123.364M90.9336 123.446C89.1401 117.142 85.8941 111.551 82.2004 106.17C77.6805 99.5865 72.4725 93.5872 66.7093 88.0601L66.7088 88.0597C66.4999 87.8585 66.3072 87.6407 66.1239 87.4335C66.1041 87.4111 66.0844 87.3888 66.0647 87.3666C65.8603 87.136 65.6649 86.9202 65.4516 86.73M91.2221 123.364C89.4156 117.014 86.1486 111.392 82.4478 106.001C77.9151 99.3981 72.6933 93.3833 66.9169 87.8436C66.7171 87.6512 66.5325 87.4425 66.3481 87.2341C66.1244 86.9813 65.901 86.7288 65.6513 86.5061M65.4516 86.73C65.4517 86.7301 65.4519 86.7303 65.4521 86.7304L65.6513 86.5061M65.4516 86.73C64.1585 85.5816 62.8429 84.4547 61.5231 83.3348M65.4516 86.73L65.6513 86.5061M65.6513 86.5061C64.3554 85.3553 63.0376 84.2265 61.7171 83.1059M25.6202 66.1409C25.5698 66.1562 25.3735 66.2789 25.1245 66.4347C25.0048 66.5096 24.8729 66.592 24.7392 66.6739C24.5859 66.8092 24.4357 66.9435 24.3091 67.0606C24.151 67.2068 24.0481 67.3094 24.0123 67.3545L23.7773 67.168L23.7386 66.8705C23.7385 66.8705 23.7387 66.8705 23.739 66.8704C23.7427 66.8695 23.7699 66.8628 23.8291 66.8374C23.8879 66.8121 23.961 66.7761 24.0457 66.7307C24.1997 66.6482 24.3793 66.5421 24.5604 66.4315L77.4511 83.4328L77.6635 83.2209C77.6635 83.2209 77.6634 83.2209 77.6634 83.2208C77.2157 82.7718 76.7697 82.3009 76.3207 81.8267C75.6794 81.1494 75.0317 80.4654 74.3635 79.8291L74.3633 79.8289C73.1812 78.7051 71.953 77.625 70.7316 76.5508C70.5179 76.3628 70.3044 76.175 70.0913 75.9872L70.0911 75.9871C69.7953 75.7267 69.4996 75.4645 69.2034 75.2018C68.1328 74.2524 67.0546 73.2963 65.9353 72.397C59.8973 67.5456 53.5109 63.22 46.2838 60.2497C43.336 59.0375 40.2839 58.106 37.0403 57.9972L37.0402 57.9972C34.6835 57.919 32.3763 58.3391 30.5471 60.1287L30.5471 60.1288C29.1969 61.4506 27.8664 62.7899 26.5368 64.1282C26.0937 64.5742 25.6508 65.02 25.2073 65.465L25.4198 65.6768L25.2077 65.4647C25.1757 65.4967 25.0436 65.6116 24.8622 65.7693C24.7369 65.8783 24.5881 66.0078 24.4325 66.1445C24.2477 66.3068 24.0586 66.4751 23.9017 66.6201C23.7518 66.7588 23.6123 66.8934 23.5423 66.9815L23.0826 67.5609L23.8161 67.4655C23.9015 67.4544 23.9913 67.4207 24.0659 67.3887C24.1467 67.354 24.2364 67.3092 24.3289 67.2596C24.5142 67.1604 24.7265 67.0337 24.9278 66.9101C25.051 66.8345 25.1746 66.7572 25.2861 66.6875C25.3551 66.6443 25.4196 66.604 25.4764 66.5688C25.5526 66.5216 25.6158 66.4831 25.6635 66.4555C25.6874 66.4417 25.7049 66.432 25.7168 66.4259C25.7179 66.4253 25.7188 66.4248 25.7197 66.4244M25.6202 66.1409L25.7053 66.4286C25.7101 66.4272 25.7149 66.4258 25.7197 66.4244M25.6202 66.1409L25.707 66.4281C25.7189 66.4245 25.7264 66.4212 25.7264 66.4211C25.7265 66.4211 25.7244 66.422 25.7197 66.4244M25.6202 66.1409C27.2922 65.6466 28.9889 65.5944 30.7103 65.8114C34.3809 66.2728 37.7989 67.5307 41.1209 69.0934M25.7197 66.4244C27.3381 65.9484 28.9868 65.8965 30.6727 66.109L30.6728 66.109C34.2997 66.5649 37.6856 67.8089 40.9931 69.3648M40.9931 69.3648L41.1209 69.0934M40.9931 69.3648C46.7013 72.0519 51.9063 75.5532 56.8701 79.4419M40.9931 69.3648C40.9932 69.3649 40.9932 69.3649 40.9932 69.3649L41.1209 69.0934M41.1209 69.0934C46.8561 71.7932 52.0806 75.3087 57.0553 79.2059M56.8701 79.4419L57.0553 79.2059M56.8701 79.4419C56.8702 79.442 56.8703 79.442 56.8703 79.4421L57.0553 79.2059M56.8701 79.4419C58.0637 80.3786 59.2169 81.3651 60.3755 82.3562C60.7569 82.6824 61.1389 83.0092 61.5231 83.3348M57.0553 79.2059C58.2543 80.1469 59.4144 81.1392 60.5742 82.1313C60.9547 82.4568 61.3352 82.7823 61.7171 83.1059M61.5231 83.3348L61.7171 83.1059M61.5231 83.3348C61.5231 83.3348 61.523 83.3347 61.523 83.3347L61.7171 83.1059M89.8767 134.942C89.9677 134.879 90.159 134.707 90.3734 134.51C90.5968 134.304 90.8682 134.048 91.1322 133.797C91.6578 133.296 92.1605 132.808 92.2027 132.766C92.587 132.383 92.9717 132 93.3565 131.616C94.8348 130.145 96.315 128.671 97.7758 127.177L97.7762 127.177C98.8727 126.051 99.4109 124.651 99.6397 123.151L99.6397 123.151M89.8767 134.942L99.6397 123.151M99.6397 123.151C100.086 120.202 99.4914 117.382 98.6441 114.643L98.3575 114.732L99.6397 123.151Z" fill="#F6F6F6" stroke="#F6F6F6" stroke-width="0.6"/>
<path d="M71.1416 133.723L71.546 133.407C71.6467 133.329 71.7301 133.264 71.8016 133.209C71.9565 133.089 72.0555 133.012 72.1536 132.93L72.1548 132.929C72.3949 132.731 72.6346 132.538 72.8726 132.346C73.4692 131.866 74.0545 131.395 74.6051 130.877C74.6053 130.877 74.6054 130.877 74.6055 130.877L74.811 131.095C75.1707 130.754 75.4864 130.65 75.9614 130.713L71.1416 133.723ZM71.1416 133.723L71.6153 133.921M71.1416 133.723L71.6153 133.921M71.6153 133.921C71.9892 134.077 72.3462 134.228 72.692 134.375C73.4653 134.703 74.1823 135.007 74.9069 135.283M71.6153 133.921L59.217 81.4469M89.8862 120.54C87.9616 115.413 85.2299 110.713 82.1194 106.231L89.8862 120.54ZM89.8862 120.54C90.9679 123.424 91.7695 126.371 91.6817 129.497C91.5526 134.144 88.8017 136.874 84.1455 136.931C80.9635 136.97 77.9546 136.129 75.0142 135.003M89.8862 120.54L75.0142 135.003M61.528 87.3761L61.5279 87.376C59.7197 85.8192 57.8698 84.3059 55.9972 82.8248L56.1833 82.5895L55.9972 82.8248C54.4636 81.6116 52.9203 80.4205 51.3056 79.3427L51.3055 79.3426C49.5849 78.1924 47.8447 77.0678 46.0106 76.1626C42.5691 74.4645 39.1265 72.8667 35.3007 72.3957L35.3006 72.3957C33.9003 72.2229 32.5332 72.2363 31.2043 72.6222C29.9939 72.9753 29.086 73.5731 28.4387 74.3738C27.7901 75.1763 27.3886 76.2006 27.2227 77.4278L27.2226 77.4279C26.8534 80.1555 27.4826 82.7652 28.4182 85.3491C30.5611 91.2649 33.9421 96.4772 37.7608 101.459L37.5227 101.642L37.7608 101.459C40.9707 105.648 44.5207 109.531 48.3432 113.166C48.5629 113.374 48.7467 113.601 48.8194 113.88C48.8948 114.169 48.8375 114.459 48.689 114.764C48.5525 115.045 48.4774 115.347 48.3944 115.681C48.3673 115.789 48.3394 115.902 48.3082 116.018C48.3082 116.018 48.3082 116.018 48.3082 116.018L48.0184 115.94C47.8537 116.555 47.7302 116.613 47.2827 116.162L61.528 87.3761ZM61.528 87.3761C65.2312 90.5608 68.6137 94.0729 71.7823 97.7935L61.528 87.3761ZM59.217 81.4469L59.4103 81.2175C57.6624 79.7447 55.8415 78.3586 53.996 77.016L53.8195 77.2586L53.996 77.016C48.4394 72.9735 42.6074 69.3751 36.0239 67.1448L36.0237 67.1447C33.166 66.1789 30.223 65.5724 27.1376 65.9057L59.217 81.4469ZM59.217 81.4469L59.4104 81.2175C60.7477 82.3444 62.0396 83.5304 63.3254 84.7109C63.9027 85.2408 64.4787 85.7696 65.0571 86.2915L65.0572 86.2915C71.6039 92.2018 77.3432 98.822 82.3658 106.06C85.4851 110.555 88.231 115.277 90.167 120.435L90.1671 120.435C91.2544 123.334 92.071 126.323 91.9816 129.505C91.9154 131.886 91.1757 133.811 89.8221 135.148C88.4685 136.486 86.5353 137.202 84.1491 137.231C80.9124 137.27 77.8624 136.415 74.9069 135.283M20.7952 71.9346L20.7952 71.9346C21.3299 68.6365 23.7809 66.2665 27.1375 65.9057L20.7952 71.9346ZM20.7952 71.9346C20.3595 74.6258 20.8115 77.2045 21.5134 79.7204M20.7952 71.9346L21.5134 79.7204M74.9069 135.283L75.0142 135.003M74.9069 135.283C74.907 135.283 74.9071 135.284 74.9072 135.284L75.0142 135.003M21.5134 79.7204C22.7425 84.1291 24.7861 88.1731 27.1013 92.0644L21.5134 79.7204Z" fill="#C9C9C9" stroke="#C9C9C9" stroke-width="0.6"/>
<path d="M135.569 51.2347L134.834 51.3558C134.748 51.3699 134.682 51.384 134.619 51.3975C134.596 51.4025 134.573 51.4073 134.55 51.4121C134.471 51.4282 134.376 51.4457 134.273 51.4388C130.442 51.2134 127.053 52.5063 123.895 54.5948L123.895 54.5948C118.811 57.9577 115.131 62.5922 112.212 67.9029L112.212 67.9029C110.446 71.1154 109.122 74.5078 108.111 78.0494C107.432 80.4337 107.072 82.8582 106.837 85.3177L106.837 85.318C106.456 89.2617 106.788 93.1294 108.146 96.8619C108.782 98.6067 109.692 100.194 110.922 101.586C111.071 101.754 111.19 101.966 111.198 102.308L111.208 102.794L110.769 102.586C110.586 102.499 110.404 102.412 110.223 102.325C109.92 102.181 109.619 102.037 109.315 101.894C107.418 101.007 105.548 100.005 104.106 98.3302C102.13 96.0365 100.999 93.3487 100.442 90.4431C99.8048 87.1219 99.6965 83.7546 100.162 80.3977C101.08 73.7692 103.332 67.6174 106.927 61.9671C109.697 57.611 113.044 53.7788 117.448 50.9555C119.968 49.3397 122.685 48.178 125.748 47.9619L135.569 51.2347ZM135.569 51.2347L134.956 50.8127M135.569 51.2347L134.956 50.8127M134.956 50.8127C134.884 50.7635 134.829 50.7235 134.779 50.6867C134.757 50.6705 134.735 50.6549 134.714 50.6395C134.648 50.5927 134.58 50.5456 134.501 50.5076C134.223 50.3673 133.946 50.2312 133.671 50.0958C133.15 49.8392 132.634 49.5852 132.125 49.3101M134.956 50.8127L132.125 49.3101M132.125 49.3101C130.129 48.2298 128.002 47.8015 125.748 47.9619L132.125 49.3101Z" fill="#F6F6F6" stroke="#F6F6F6" stroke-width="0.6"/>
<path d="M127.5 37.4115C127.951 36.1817 128.159 34.9774 127.954 33.8373C127.748 32.6963 127.133 31.651 125.998 30.7288C125.418 30.0526 124.654 29.3374 123.923 28.6728C123.759 28.5244 123.598 28.3788 123.44 28.2366C122.876 27.7285 122.362 27.2644 121.985 26.8756L121.985 26.8756L121.982 26.8728C121.96 26.8511 121.932 26.8237 121.906 26.8034C121.899 26.7979 121.885 26.7871 121.866 26.7763C121.856 26.7709 121.84 26.762 121.818 26.7541C121.8 26.7475 121.757 26.7331 121.7 26.7357C121.633 26.7388 121.539 26.7673 121.473 26.8553C121.416 26.9312 121.412 27.0092 121.412 27.0423C121.414 27.1028 121.433 27.1486 121.437 27.1573C121.437 27.1577 121.437 27.158 121.437 27.1582C121.454 27.1979 121.482 27.2362 121.491 27.2502C121.492 27.2509 121.492 27.2516 121.493 27.2522C121.509 27.2752 121.529 27.3027 121.552 27.3325C121.643 27.4514 121.796 27.6427 121.957 27.8427C121.994 27.8893 122.032 27.9364 122.07 27.9834C122.197 28.1403 122.322 28.2958 122.424 28.424C122.49 28.5074 122.545 28.5772 122.582 28.6273C122.586 28.6327 122.59 28.6378 122.594 28.6426C122.773 30.8663 121.979 32.8355 120.867 34.7605L120.867 34.7605C119.453 37.2079 117.567 39.2559 115.336 40.9935L115.336 40.9936C115.128 41.1556 114.908 41.358 114.876 41.6409C114.843 41.9304 115.017 42.1789 115.213 42.3954L115.213 42.3954C116.449 43.7641 117.638 45.1745 118.83 46.5896L118.83 46.5898C118.947 46.7291 119.109 46.9176 119.325 46.9979C119.587 47.0949 119.841 47.0143 120.08 46.8337C123.363 44.3585 126.049 41.3684 127.5 37.4115ZM127.5 37.4115L127.218 37.3083M127.5 37.4115L127.218 37.3083M127.218 37.3083C128.1 34.9051 127.987 32.7189 125.788 30.9447L115.52 41.2302C115.097 41.5598 115.048 41.7658 115.435 42.1942C116.676 43.5675 117.868 44.9819 119.059 46.3964C119.312 46.6957 119.515 46.8852 119.899 46.5941C123.153 44.1415 125.794 41.1945 127.218 37.3083Z" fill="#F6F6F6" stroke="#F6F6F6" stroke-width="0.6"/>
<path d="M105.319 35.1349C105.296 35.1656 105.24 35.2478 105.25 35.3641C105.262 35.5038 105.355 35.5828 105.414 35.6157C105.467 35.6454 105.519 35.655 105.545 35.6589C105.576 35.6636 105.606 35.665 105.63 35.6653C105.723 35.6663 105.846 35.6518 105.95 35.6391C105.971 35.6365 105.992 35.6339 106.013 35.6314C106.104 35.6201 106.187 35.6097 106.259 35.6041C106.286 35.602 106.307 35.6009 106.324 35.6006C106.837 35.9263 107.375 36.2199 107.918 36.5166C108.098 36.6144 108.277 36.7124 108.457 36.8121L108.704 36.9491L108.855 36.711C108.893 36.6527 108.926 36.6041 108.962 36.5529C108.982 36.5239 109.002 36.4941 109.025 36.4612C109.081 36.3775 109.141 36.2829 109.188 36.1747L109.188 36.1747L109.19 36.17C109.856 34.5574 110.931 33.2452 112.29 32.1561L112.29 32.1561C113.408 31.2604 114.571 30.5435 115.985 30.4637L115.986 30.4637C116.716 30.4216 117.217 30.604 117.523 30.9222C117.83 31.241 117.996 31.753 117.934 32.4869C117.914 32.7152 117.869 32.9439 117.801 33.1624L117.801 33.1633C117.102 35.4413 115.597 37.102 113.639 38.4388C113.4 38.601 113.159 38.7463 112.884 38.9121C112.738 38.9998 112.583 39.0931 112.414 39.1977L112.082 39.4031L112.366 39.6711C112.546 39.8401 112.716 39.995 112.879 40.1429C113.211 40.4451 113.512 40.718 113.789 41.0226C114.03 41.2874 114.3 41.4825 114.628 41.5002C114.952 41.5176 115.246 41.3562 115.525 41.1262C117.441 39.5471 119.161 37.781 120.527 35.6778C121.684 33.8986 122.612 31.9957 122.796 29.7854L122.796 29.7851C122.901 28.507 122.587 27.4228 121.885 26.6667C121.182 25.9096 120.13 25.5242 118.847 25.5661L118.846 25.5662C118.094 25.5919 117.329 25.7346 116.618 25.9558C113.576 26.9008 111.091 28.7267 108.95 30.9793C107.93 32.0519 106.225 33.94 105.319 35.1349ZM105.319 35.1349C105.319 35.1351 105.319 35.1352 105.319 35.1354L105.558 35.3166M105.319 35.1349C105.319 35.1347 105.32 35.1346 105.32 35.1344L105.558 35.3166M105.558 35.3166C105.533 35.3494 105.561 35.3628 105.621 35.365C105.621 35.365 105.622 35.365 105.622 35.365C105.677 35.3669 105.758 35.3595 105.849 35.3491C105.845 35.4313 105.807 35.4846 105.797 35.4978C105.836 35.4468 105.876 35.3944 105.918 35.3409C105.936 35.3386 105.954 35.3363 105.973 35.334C106.175 35.3089 106.384 35.2829 106.436 35.3166L109.168 31.1859C108.221 32.1816 106.689 33.8749 105.759 35.0572C105.705 35.0627 105.664 35.0656 105.637 35.0653C105.632 35.0652 105.63 35.0651 105.63 35.0651C105.63 35.0651 105.631 35.0652 105.634 35.0656L105.634 35.0656C105.637 35.066 105.668 35.0704 105.707 35.0919C105.712 35.0947 105.717 35.0982 105.723 35.1021C105.666 35.1758 105.61 35.2474 105.558 35.3166ZM106.274 35.5689L106.274 35.5693L106.274 35.5689Z" fill="#EBEBEB" stroke="#EBEBEB" stroke-width="0.6"/>
<path d="M77.3642 105.272C77.29 105.409 77.2296 105.533 77.1582 105.646C76.568 106.568 75.9612 107.48 75.3847 108.411C75.1211 108.837 74.896 108.856 74.5391 108.505C73.073 107.066 71.3901 105.948 69.4793 105.187C69.0373 105.011 68.9933 104.781 69.2377 104.404C70.2837 102.798 71.327 101.191 72.3565 99.5732C72.631 99.142 72.8589 99.1942 73.1307 99.554C74.465 101.32 75.8047 103.08 77.139 104.849C77.2324 104.976 77.2873 105.127 77.3642 105.272Z" fill="white"/>
<path d="M140.632 61.7138C138.603 62.763 138.001 64.8586 137.032 66.6603C133.721 72.8179 130.476 79.0112 127.204 85.1908C126.63 86.2756 126.045 87.355 125.463 88.4343C125.356 88.6293 125.232 88.8161 125.049 89.11C124.524 88.6458 124.033 88.2531 123.602 87.7999C123.511 87.7038 123.585 87.3687 123.679 87.1929C124.17 86.2701 124.714 85.372 125.202 84.4465C128.964 77.3138 132.708 70.1757 136.483 63.0514C136.788 62.4774 137.213 61.9363 137.694 61.4996C138.644 60.6317 139.591 60.7224 140.632 61.7138Z" fill="white"/>
<path d="M121.365 96.077C120.67 95.4591 119.973 94.8466 119.284 94.2231C117.505 92.6192 115.742 90.996 113.944 89.4113C113.123 88.6862 112.81 87.8596 113.096 86.7884C113.42 85.569 113.727 84.3578 114.801 83.5284C115.775 82.7758 116.711 82.8335 117.59 83.6822C116.928 84.4155 116.231 85.1158 115.619 85.8848C114.479 87.3075 114.691 89.6777 116.033 90.9027C117.686 92.4105 119.344 93.9073 121.011 95.4014C121.195 95.5662 121.436 95.6623 121.65 95.7886C121.557 95.8848 121.461 95.9809 121.365 96.077Z" fill="white"/>
<line x1="5" y1="-5" x2="11.3239" y2="-5" transform="matrix(0.794504 0.607259 -0.620607 0.784122 108.078 87.5879)" stroke="#A5A5A6" stroke-width="10" stroke-linecap="round"/>
<line x1="5" y1="-5" x2="32.3323" y2="-5" transform="matrix(-0.521108 0.853491 -0.861412 -0.507907 135.457 61.3889)" stroke="#A5A5A6" stroke-width="10" stroke-linecap="round"/>
<line x1="5" y1="-5" x2="11.4451" y2="-5" transform="matrix(0.788652 0.614841 -0.613041 0.790052 109.52 88.8333)" stroke="#8E8E8E" stroke-width="10" stroke-linecap="round"/>
<line x1="5" y1="-5" x2="32.8776" y2="-5" transform="matrix(-0.513606 0.858026 -0.856958 -0.515386 136.898 62.1111)" stroke="#8E8E8E" stroke-width="10" stroke-linecap="round"/>
<path d="M63.1666 135.975L63.1662 135.975C54.5453 135.842 47.3923 128.693 47.4122 120.017M63.1666 135.975L63.4936 103.885C54.5792 103.862 47.432 111.041 47.4122 120.017M63.1666 135.975C71.8347 136.103 79.4143 129.216 79.4766 119.997C79.5361 111.138 72.3046 103.905 63.4937 103.885L63.1666 135.975ZM47.4122 120.017L47.9121 120.018L47.4122 120.017Z" fill="#F6F6F6" stroke="#F6F6F6"/>
</svg>
