<svg width="120" height="137" viewBox="0 0 120 137" fill="none" xmlns="http://www.w3.org/2000/svg">
<g opacity="0.5" clip-path="url(#clip0_119_16658)">
<path d="M25.1609 46.4338C25.1609 46.4721 25.1568 46.5064 25.1507 46.5387C25.1487 46.5549 25.1447 46.571 25.1426 46.5852C25.1365 46.6074 25.1305 46.6296 25.1223 46.6498C25.1183 46.6619 25.1122 46.676 25.1081 46.6861C25.098 46.7063 25.0858 46.7244 25.0716 46.7406C25.0655 46.7487 25.0594 46.7588 25.0534 46.7648C25.0331 46.787 25.0087 46.8072 24.9844 46.8213L33.1731 42.0855C33.1994 42.0714 33.2218 42.0512 33.242 42.029C33.2481 42.0209 33.2542 42.0128 33.2603 42.0048C33.2725 41.9886 33.2846 41.9705 33.2968 41.9503C33.3029 41.9382 33.307 41.926 33.311 41.9139C33.3191 41.8937 33.3252 41.8736 33.3313 41.8493C33.3354 41.8352 33.3374 41.8191 33.3394 41.8029C33.3415 41.7908 33.3455 41.7807 33.3455 41.7686C33.3475 41.7524 33.3475 41.7363 33.3496 41.7201C33.3496 41.7141 33.3496 41.706 33.3496 41.7L25.1609 46.4338Z" fill="#3E3E41"/>
<path d="M25.2215 25.1933L25.1606 46.4339L33.3493 41.6981L33.4021 23.0374L25.2215 25.1933Z" fill="#424245"/>
<path d="M23.9453 45.7355C23.9433 46.119 24.2152 46.5874 24.552 46.7812C24.8867 46.975 25.1586 46.8175 25.1606 46.434L25.2215 25.1934L24.0042 25.5143L23.9453 45.7355Z" fill="#4B4B4E"/>
<path d="M52.3336 75.3772C52.3336 75.5024 52.3295 75.6316 52.3173 75.7607C52.3173 75.7628 52.3173 75.7648 52.3173 75.7668C52.3072 75.894 52.291 76.0232 52.2707 76.1524C52.2707 76.1544 52.2707 76.1584 52.2686 76.1604C52.2484 76.2896 52.222 76.4209 52.1915 76.5501C52.1915 76.5521 52.1895 76.5561 52.1895 76.5581C52.1591 76.6893 52.1226 76.8206 52.084 76.9538C52.084 76.9538 52.084 76.9538 52.084 76.9558C52.0434 77.089 51.9988 77.2223 51.9501 77.3535C51.9501 77.3535 51.9501 77.3535 51.9501 77.3555C51.9014 77.4847 51.8507 77.6139 51.7939 77.7411C51.7918 77.7471 51.7878 77.7552 51.7858 77.7613C51.731 77.8864 51.6721 78.0116 51.6092 78.1347C51.6052 78.1408 51.6032 78.1468 51.5991 78.1549C51.5362 78.2781 51.4693 78.3992 51.4003 78.5203C51.3151 78.6677 51.2238 78.809 51.1304 78.9503C51.0716 79.0371 51.0127 79.1239 50.9499 79.2087C50.8565 79.3379 50.7591 79.463 50.6577 79.5841C50.5725 79.6871 50.4832 79.786 50.3939 79.8809C50.3858 79.889 50.3797 79.897 50.3736 79.9031C50.2823 80 50.189 80.0929 50.0937 80.1817C50.0896 80.1857 50.0855 80.1898 50.0794 80.1938C49.9821 80.2846 49.8826 80.3714 49.7792 80.4542C49.7771 80.4562 49.7751 80.4562 49.7731 80.4582C49.6716 80.541 49.5661 80.6197 49.4606 80.6924C49.4586 80.6944 49.4545 80.6964 49.4525 80.6985C49.345 80.7711 49.2375 80.8398 49.1279 80.9044C49.0163 80.969 48.9067 81.0255 48.7992 81.0739C48.7972 81.0739 48.7972 81.076 48.7951 81.076C48.6876 81.1244 48.5821 81.1668 48.4786 81.2011C48.4766 81.2011 48.4746 81.2031 48.4726 81.2031C48.3691 81.2375 48.2676 81.2657 48.1682 81.2879C48.1662 81.2879 48.1642 81.2879 48.1621 81.2899C48.0627 81.3121 47.9633 81.3263 47.8679 81.3343C47.7705 81.3424 47.6772 81.3444 47.5859 81.3404H47.5839C47.4946 81.3364 47.4094 81.3243 47.3262 81.3081C47.3222 81.3081 47.3181 81.3061 47.312 81.3061C47.2309 81.2899 47.1497 81.2657 47.0746 81.2374C47.0706 81.2354 47.0645 81.2334 47.0604 81.2314C46.9833 81.2011 46.9103 81.1688 46.8413 81.1264L48.3528 82.0005C48.3955 82.0247 48.4381 82.0469 48.4827 82.0671C48.5131 82.0813 48.5436 82.0934 48.574 82.1055C48.5781 82.1075 48.5821 82.1095 48.5882 82.1115C48.5923 82.1136 48.5943 82.1136 48.5983 82.1156C48.6308 82.1277 48.6653 82.1378 48.6978 82.1479C48.7282 82.156 48.7586 82.164 48.7891 82.1721C48.8012 82.1741 48.8134 82.1782 48.8256 82.1802C48.8296 82.1802 48.8337 82.1822 48.8398 82.1822C48.8499 82.1842 48.8621 82.1862 48.8722 82.1883C48.9007 82.1923 48.927 82.1983 48.9554 82.2004C48.9798 82.2044 49.0041 82.2064 49.0285 82.2084C49.0508 82.2105 49.0731 82.2125 49.0975 82.2125H49.0995C49.1015 82.2125 49.1015 82.2125 49.1035 82.2125C49.1279 82.2145 49.1522 82.2145 49.1766 82.2145C49.1989 82.2145 49.2212 82.2145 49.2435 82.2145C49.2659 82.2145 49.2882 82.2125 49.3125 82.2125C49.3348 82.2105 49.3572 82.2105 49.3815 82.2084C49.4018 82.2064 49.4241 82.2044 49.4464 82.2024C49.4667 82.2004 49.489 82.1963 49.5114 82.1943C49.5337 82.1903 49.554 82.1883 49.5763 82.1842C49.5986 82.1802 49.6189 82.1761 49.6412 82.1721C49.6534 82.1701 49.6656 82.166 49.6777 82.164C49.6798 82.164 49.6818 82.164 49.6838 82.162C49.6899 82.16 49.696 82.16 49.7041 82.158C49.7244 82.1539 49.7447 82.1479 49.767 82.1438C49.7873 82.1378 49.8096 82.1337 49.8299 82.1277C49.8502 82.1216 49.8705 82.1156 49.8928 82.1095C49.9131 82.1035 49.9334 82.0974 49.9537 82.0914C49.9658 82.0873 49.978 82.0833 49.9902 82.0792C49.9922 82.0792 49.9942 82.0772 49.9963 82.0772C50.0024 82.0752 50.0105 82.0732 50.0166 82.0712C50.0368 82.0631 50.0571 82.057 50.0794 82.049C50.0997 82.0409 50.12 82.0328 50.1423 82.0247C50.1626 82.0167 50.1829 82.0086 50.2052 82.0005C50.2255 81.9924 50.2478 81.9823 50.2681 81.9743C50.2844 81.9682 50.2986 81.9601 50.3148 81.9521C50.3168 81.9521 50.3168 81.95 50.3189 81.95C50.3229 81.948 50.327 81.946 50.331 81.944C50.3513 81.9339 50.3736 81.9238 50.3939 81.9137C50.4162 81.9036 50.4365 81.8935 50.4589 81.8814C50.4812 81.8713 50.5015 81.8592 50.5238 81.8471C50.5461 81.835 50.5664 81.8229 50.5887 81.8108C50.609 81.8007 50.6273 81.7885 50.6475 81.7785C50.6496 81.7764 50.6516 81.7764 50.6557 81.7744C50.678 81.7603 50.7023 81.7482 50.7246 81.7341C50.747 81.7199 50.7713 81.7058 50.7936 81.6917C50.8159 81.6775 50.8383 81.6634 50.8626 81.6472C50.8849 81.6331 50.9093 81.617 50.9316 81.6008C50.9458 81.5907 50.96 81.5806 50.9742 81.5726C50.9762 81.5705 50.9803 81.5685 50.9823 81.5665C50.9904 81.5604 50.9985 81.5564 51.0067 81.5503C51.031 81.5342 51.0554 81.516 51.0797 81.4979C51.104 81.4797 51.1284 81.4615 51.1527 81.4454C51.1791 81.4252 51.2055 81.405 51.2319 81.3848C51.2542 81.3666 51.2765 81.3505 51.2968 81.3323C51.2988 81.3303 51.3009 81.3303 51.3029 81.3283C51.3049 81.3263 51.309 81.3243 51.311 81.3222C51.3374 81.3 51.3637 81.2778 51.3901 81.2556C51.4185 81.2314 51.449 81.2072 51.4774 81.1809C51.5078 81.1547 51.5382 81.1264 51.5687 81.0982C51.5788 81.0881 51.591 81.078 51.6011 81.0679C51.6052 81.0638 51.6092 81.0598 51.6153 81.0558C51.6295 81.0416 51.6458 81.0275 51.66 81.0154C51.6965 80.9811 51.733 80.9447 51.7695 80.9084C51.8061 80.8721 51.8426 80.8337 51.8791 80.7954C51.8852 80.7893 51.8913 80.7832 51.8953 80.7772C51.9034 80.7691 51.9095 80.761 51.9176 80.753C51.9501 80.7166 51.9846 80.6823 52.0171 80.646C52.0718 80.5854 52.1266 80.5228 52.1794 80.4582L52.1814 80.4562C52.2828 80.3351 52.3802 80.2099 52.4736 80.0807C52.4797 80.0707 52.4878 80.0626 52.4959 80.0525C52.5405 79.9899 52.5852 79.9293 52.6278 79.8647C52.6379 79.8506 52.646 79.8345 52.6562 79.8203C52.7495 79.679 52.8408 79.5377 52.926 79.3903C52.926 79.3903 52.926 79.3903 52.926 79.3883C52.9666 79.3177 53.0072 79.245 53.0457 79.1723C53.0721 79.1239 53.0985 79.0734 53.1228 79.0229C53.1269 79.0169 53.1289 79.0108 53.133 79.0048C53.135 79.0007 53.137 78.9967 53.1411 78.9906C53.1675 78.9382 53.1938 78.8857 53.2182 78.8312C53.2405 78.7847 53.2608 78.7383 53.2831 78.6919C53.2932 78.6717 53.3014 78.6515 53.3095 78.6313C53.3115 78.6253 53.3156 78.6172 53.3176 78.6111C53.3237 78.595 53.3318 78.5809 53.3379 78.5647C53.3561 78.5223 53.3724 78.4819 53.3906 78.4395C53.4048 78.4032 53.419 78.3669 53.4332 78.3305C53.4474 78.2962 53.4596 78.2599 53.4738 78.2256V78.2235V78.2215C53.486 78.1872 53.5002 78.1509 53.5124 78.1166C53.5245 78.0843 53.5347 78.052 53.5448 78.0197C53.555 77.9874 53.5651 77.9551 53.5773 77.9228C53.5874 77.8905 53.5976 77.8582 53.6077 77.8259V77.8238C53.6158 77.7956 53.624 77.7673 53.6321 77.7391C53.6402 77.7108 53.6483 77.6805 53.6564 77.6523C53.6645 77.624 53.6726 77.5937 53.6787 77.5655C53.6869 77.5372 53.6929 77.5089 53.7011 77.4807C53.7051 77.4645 53.7092 77.4484 53.7132 77.4322C53.7132 77.4302 53.7153 77.4262 53.7153 77.4241C53.7173 77.4161 53.7193 77.408 53.7213 77.3999C53.7274 77.3737 53.7335 77.3454 53.7396 77.3192C53.7457 77.2929 53.7518 77.2647 53.7558 77.2384C53.7619 77.2122 53.766 77.1859 53.7721 77.1577C53.7761 77.1314 53.7822 77.1052 53.7863 77.0789C53.7883 77.0648 53.7903 77.0507 53.7944 77.0345C53.7944 77.0325 53.7944 77.0285 53.7964 77.0265C53.7984 77.0184 53.7984 77.0083 53.8005 77.0002C53.8045 76.974 53.8086 76.9477 53.8126 76.9215C53.8167 76.8952 53.8187 76.869 53.8228 76.8448C53.8268 76.8185 53.8289 76.7943 53.8309 76.7681C53.8329 76.7418 53.837 76.7176 53.839 76.6914C53.841 76.6732 53.841 76.657 53.8431 76.6389C53.8431 76.6369 53.8431 76.6348 53.8431 76.6328C53.8431 76.6268 53.8451 76.6207 53.8451 76.6147C53.8471 76.5884 53.8492 76.5642 53.8512 76.5379C53.8532 76.5117 53.8532 76.4875 53.8553 76.4612C53.8573 76.435 53.8573 76.4108 53.8573 76.3845C53.8573 76.3583 53.8593 76.3341 53.8593 76.3078C53.8593 76.2876 53.8593 76.2674 53.8593 76.2473L52.3336 75.3772Z" fill="#B2B2B2"/>
<path d="M40.3975 82.2349C40.3975 82.36 40.3934 82.4892 40.3812 82.6184C40.3812 82.6204 40.3812 82.6225 40.3812 82.6245C40.3711 82.7516 40.3549 82.8808 40.3346 83.01C40.3346 83.0121 40.3346 83.0161 40.3325 83.0181C40.3123 83.1473 40.2859 83.2785 40.2554 83.4077C40.2554 83.4097 40.2534 83.4138 40.2534 83.4158C40.1925 83.6802 40.1114 83.9467 40.014 84.2091V84.2112C39.9653 84.3404 39.9146 84.4675 39.8578 84.5947C39.8557 84.6008 39.8517 84.6088 39.8497 84.6149C39.7949 84.7401 39.736 84.8652 39.6731 84.9863C39.6691 84.9924 39.6671 85.0005 39.663 85.0065C39.6001 85.1297 39.5352 85.2508 39.4642 85.3719C39.379 85.5193 39.2877 85.6606 39.1943 85.8019C39.1355 85.8887 39.0766 85.9755 39.0137 86.0603C38.9204 86.1895 38.823 86.3146 38.7216 86.4358C38.6364 86.5387 38.5471 86.6376 38.4578 86.7325C38.4497 86.7406 38.4436 86.7487 38.4355 86.7567C38.3442 86.8536 38.2509 86.9465 38.1555 87.0353C38.1515 87.0393 38.1474 87.0434 38.1413 87.0474C38.0439 87.1383 37.9445 87.2251 37.8431 87.3078C37.841 87.3099 37.839 87.3098 37.839 87.3119C37.7376 87.3946 37.6321 87.4734 37.5266 87.546C37.5245 87.5481 37.5225 87.5501 37.5184 87.5521C37.4109 87.6248 37.3034 87.6934 37.1938 87.758C37.0822 87.8226 36.9727 87.8791 36.8651 87.9276C36.8631 87.9276 36.8631 87.9296 36.8611 87.9296C36.7535 87.978 36.648 88.0204 36.5446 88.0548C36.5425 88.0548 36.5405 88.0568 36.5385 88.0568C36.435 88.0911 36.3336 88.1193 36.2341 88.1416C36.2321 88.1416 36.2301 88.1416 36.228 88.1436C36.0272 88.186 35.8344 88.2041 35.6518 88.194H35.6498C35.5605 88.19 35.4753 88.1779 35.3921 88.1617C35.3881 88.1617 35.384 88.1597 35.3779 88.1597C35.2968 88.1436 35.2176 88.1193 35.1406 88.0911C35.1365 88.0891 35.1324 88.087 35.1263 88.085C35.0493 88.0547 34.9762 88.0224 34.9072 87.9801L36.4188 88.8541C36.4614 88.8784 36.504 88.9006 36.5486 88.9208C36.5791 88.9349 36.6095 88.947 36.6399 88.9591C36.644 88.9611 36.648 88.9632 36.6541 88.9652C36.6582 88.9672 36.6602 88.9672 36.6643 88.9692C36.6967 88.9813 36.7312 88.9914 36.7637 89.0015C36.7941 89.0096 36.8245 89.0177 36.855 89.0257C36.8672 89.0278 36.8793 89.0318 36.8915 89.0338C36.8956 89.0338 36.8996 89.0358 36.9057 89.0358C36.9159 89.0378 36.928 89.0399 36.9382 89.0419C36.9666 89.0459 36.993 89.052 37.0214 89.054C37.0457 89.058 37.07 89.0601 37.0944 89.0621C37.1167 89.0641 37.1411 89.0661 37.1634 89.0661H37.1654C37.1674 89.0661 37.1674 89.0661 37.1695 89.0661C37.1938 89.0681 37.2182 89.0681 37.2425 89.0681C37.2648 89.0681 37.2871 89.0681 37.3095 89.0681C37.3318 89.0681 37.3541 89.0661 37.3784 89.0661C37.4008 89.0641 37.4251 89.0641 37.4474 89.0621C37.4677 89.0601 37.49 89.058 37.5103 89.056C37.5306 89.054 37.5529 89.05 37.5752 89.0479C37.5976 89.0439 37.6179 89.0419 37.6402 89.0379C37.6625 89.0338 37.6828 89.0298 37.7051 89.0257C37.7173 89.0237 37.7294 89.0197 37.7416 89.0177C37.7437 89.0177 37.7457 89.0177 37.7477 89.0156C37.7538 89.0136 37.7599 89.0136 37.766 89.0116C37.7863 89.0076 37.8065 89.0015 37.8289 88.9975C37.8492 88.9914 37.8715 88.9874 37.8918 88.9813C37.912 88.9753 37.9323 88.9692 37.9547 88.9632C37.9749 88.9571 37.9952 88.951 38.0155 88.945C38.0277 88.9409 38.0399 88.9369 38.052 88.9329C38.0541 88.9329 38.0561 88.9309 38.0581 88.9309C38.0642 88.9288 38.0703 88.9268 38.0784 88.9248C38.0987 88.9167 38.119 88.9107 38.1413 88.9026C38.1616 88.8945 38.1819 88.8864 38.2042 88.8784C38.2245 88.8703 38.2448 88.8622 38.2671 88.8541C38.2874 88.8461 38.3097 88.836 38.33 88.8279C38.3462 88.8218 38.3625 88.8138 38.3767 88.8057C38.3787 88.8057 38.3787 88.8037 38.3807 88.8037C38.3848 88.8017 38.3888 88.7996 38.3929 88.7976C38.4132 88.7875 38.4355 88.7774 38.4558 88.7673C38.4781 88.7573 38.4984 88.7451 38.5207 88.735C38.543 88.725 38.5633 88.7128 38.5856 88.7007C38.608 88.6886 38.6283 88.6765 38.6506 88.6644C38.6709 88.6543 38.6891 88.6422 38.7094 88.6321C38.7114 88.6301 38.7135 88.6301 38.7175 88.6281C38.7398 88.6139 38.7642 88.6018 38.7865 88.5877C38.8088 88.5736 38.8332 88.5594 38.8555 88.5453C38.8778 88.5312 38.9001 88.517 38.9245 88.5009C38.9468 88.4867 38.9711 88.4706 38.9935 88.4544C39.0077 88.4444 39.0219 88.4343 39.0361 88.4262C39.0381 88.4242 39.0401 88.4222 39.0442 88.4201C39.0523 88.4141 39.0604 88.41 39.0665 88.404C39.0908 88.3878 39.1152 88.3697 39.1395 88.3515C39.1639 88.3333 39.1882 88.3152 39.2126 88.299C39.239 88.2788 39.2653 88.2586 39.2897 88.2384C39.312 88.2203 39.3343 88.2041 39.3566 88.186C39.3587 88.1839 39.3607 88.1839 39.3607 88.1819C39.3627 88.1799 39.3668 88.1779 39.3688 88.1759C39.3952 88.1537 39.4216 88.1315 39.4479 88.1093C39.4763 88.085 39.5068 88.0608 39.5352 88.0346C39.5656 88.0083 39.596 87.9801 39.6265 87.9518C39.6366 87.9417 39.6488 87.9316 39.6589 87.9215C39.663 87.9175 39.6671 87.9134 39.6711 87.9094C39.6853 87.8953 39.7016 87.8811 39.7158 87.869C39.7523 87.8347 39.7888 87.7984 39.8253 87.762C39.8618 87.7257 39.8984 87.6873 39.9349 87.649C39.941 87.6429 39.9471 87.6369 39.9511 87.6308C39.9592 87.6227 39.9653 87.6147 39.9734 87.6066C40.0059 87.5703 40.0404 87.5359 40.0728 87.4996C40.1276 87.439 40.1824 87.3765 40.2352 87.3119L40.2372 87.3099C40.3386 87.1887 40.436 87.0636 40.5293 86.9344C40.5354 86.9243 40.5436 86.9162 40.5517 86.9061C40.5963 86.8435 40.6409 86.781 40.6835 86.7184C40.6937 86.7042 40.7018 86.6881 40.7099 86.674C40.8033 86.5327 40.8946 86.3913 40.9798 86.244C40.9798 86.244 40.9798 86.242 40.9818 86.242C41.0224 86.1713 41.063 86.0986 41.1015 86.026C41.1279 85.9775 41.1522 85.9291 41.1786 85.8786C41.1827 85.8725 41.1847 85.8645 41.1887 85.8584C41.1908 85.8544 41.1928 85.8483 41.1969 85.8443C41.2232 85.7918 41.2496 85.7373 41.276 85.6848C41.2983 85.6384 41.3186 85.5919 41.3409 85.5455C41.349 85.5253 41.3592 85.5051 41.3673 85.485C41.3713 85.4769 41.3734 85.4708 41.3774 85.4648C41.3835 85.4486 41.3916 85.4325 41.3977 85.4183C41.416 85.378 41.4322 85.3356 41.4505 85.2932C41.4647 85.2568 41.4789 85.2205 41.4931 85.1842C41.5073 85.1499 41.5195 85.1155 41.5316 85.0812C41.5316 85.0812 41.5316 85.0792 41.5337 85.0792C41.5337 85.0792 41.5337 85.0772 41.5357 85.0772C41.5479 85.0429 41.5621 85.0065 41.5742 84.9722C41.5864 84.9399 41.5966 84.9076 41.6067 84.8753C41.6168 84.843 41.627 84.8107 41.6392 84.7784C41.6493 84.7461 41.6595 84.7138 41.6696 84.6815C41.6777 84.6533 41.6879 84.623 41.696 84.5947C41.7041 84.5665 41.7122 84.5362 41.7203 84.5079C41.7284 84.4796 41.7366 84.4494 41.7426 84.4211C41.7508 84.3928 41.7568 84.3646 41.765 84.3363C41.769 84.3202 41.7731 84.304 41.7771 84.2879C41.7771 84.2859 41.7792 84.2818 41.7792 84.2798C41.7812 84.2717 41.7832 84.2636 41.7852 84.2536C41.7913 84.2253 41.7974 84.199 41.8035 84.1728C41.8096 84.1466 41.8157 84.1183 41.8197 84.0921C41.8258 84.0658 41.8299 84.0396 41.836 84.0113C41.84 83.9851 41.8461 83.9588 41.8502 83.9326C41.8522 83.9185 41.8542 83.9043 41.8563 83.8902C41.8563 83.8882 41.8563 83.8862 41.8583 83.8821C41.8603 83.874 41.8603 83.8639 41.8623 83.8559C41.8664 83.8296 41.8705 83.8034 41.8745 83.7771C41.8786 83.7509 41.8806 83.7267 41.8847 83.7004C41.8887 83.6742 41.8908 83.65 41.8928 83.6237C41.8948 83.5975 41.8989 83.5733 41.9009 83.547C41.9029 83.5288 41.9029 83.5127 41.905 83.4945C41.905 83.4925 41.905 83.4905 41.905 83.4885C41.905 83.4824 41.907 83.4764 41.907 83.4703C41.909 83.4441 41.911 83.4198 41.9131 83.3936C41.9151 83.3673 41.9151 83.3431 41.9171 83.3169C41.9192 83.2906 41.9192 83.2664 41.9192 83.2402C41.9192 83.2139 41.9212 83.1897 41.9212 83.1635C41.9212 83.1433 41.9212 83.1231 41.9212 83.1029L40.3975 82.2349Z" fill="#D6A200"/>
<path d="M53.7679 48.866L52.2563 47.9919L52.3334 75.3774L53.845 76.2535L53.7679 48.866Z" fill="#9B9B9B"/>
<path d="M28.8834 88.8506C28.8834 88.9757 28.8793 89.1049 28.8672 89.2341C28.8672 89.2362 28.8672 89.2382 28.8672 89.2402C28.857 89.3674 28.8408 89.4966 28.8205 89.6258C28.8205 89.6278 28.8205 89.6298 28.8185 89.6318C28.7982 89.761 28.7718 89.8922 28.7414 90.0234C28.7414 90.0255 28.7393 90.0275 28.7393 90.0315C28.7089 90.1627 28.6724 90.296 28.6338 90.4272C28.5932 90.5604 28.5486 90.6936 28.4999 90.8249V90.8269C28.4512 90.9561 28.4005 91.0833 28.3437 91.2124C28.3417 91.2185 28.3376 91.2266 28.3356 91.2326C28.2808 91.3578 28.222 91.483 28.1591 91.6041C28.155 91.6101 28.153 91.6182 28.1489 91.6243C28.086 91.7474 28.0211 91.8685 27.9501 91.9896C27.8649 92.137 27.7736 92.2783 27.6802 92.4196C27.6214 92.5064 27.5626 92.5932 27.4997 92.678C27.4063 92.8072 27.3089 92.9324 27.2075 93.0535C27.1223 93.1564 27.033 93.2554 26.9437 93.3502C26.9356 93.3583 26.9295 93.3664 26.9214 93.3745C26.8301 93.4714 26.7368 93.5642 26.6414 93.653C26.6374 93.6571 26.6313 93.6611 26.6272 93.6652C26.5298 93.756 26.4304 93.8428 26.329 93.9256C26.327 93.9276 26.3249 93.9276 26.3229 93.9296C26.2214 94.0124 26.1159 94.0911 26.0104 94.1638C26.0084 94.1658 26.0064 94.1678 26.0023 94.1698C25.8948 94.2425 25.7873 94.3111 25.6777 94.3757C25.5661 94.4403 25.4565 94.4969 25.349 94.5453C25.347 94.5453 25.347 94.5473 25.345 94.5473C25.2374 94.5958 25.1319 94.6382 25.0284 94.6725C25.0264 94.6725 25.0244 94.6745 25.0224 94.6745C24.9189 94.7088 24.8174 94.7371 24.718 94.7593C24.716 94.7593 24.714 94.7593 24.7119 94.7613C24.5111 94.8037 24.3183 94.8219 24.1357 94.8118H24.1337C24.0444 94.8077 23.9592 94.7956 23.876 94.7795C23.872 94.7795 23.8679 94.7775 23.8618 94.7775C23.7807 94.7613 23.7015 94.7371 23.6244 94.7088C23.6204 94.7068 23.6163 94.7048 23.6102 94.7028C23.5331 94.6725 23.4601 94.6402 23.3911 94.5978L24.9027 95.4719C24.9453 95.4961 24.9879 95.5183 25.0325 95.5385C25.0629 95.5526 25.0934 95.5647 25.1238 95.5769C25.1279 95.5789 25.1319 95.5809 25.138 95.5829C25.1421 95.5849 25.1441 95.5849 25.1482 95.587C25.1806 95.5991 25.2151 95.6092 25.2476 95.6193C25.278 95.6273 25.3084 95.6354 25.3389 95.6435C25.351 95.6455 25.3632 95.6495 25.3754 95.6515C25.3794 95.6515 25.3835 95.6536 25.3896 95.6536C25.3997 95.6556 25.4119 95.6576 25.4221 95.6596C25.4505 95.6637 25.4768 95.6697 25.5052 95.6717C25.5296 95.6758 25.5539 95.6778 25.5783 95.6798C25.6006 95.6818 25.6249 95.6838 25.6473 95.6838H25.6493C25.6513 95.6838 25.6513 95.6838 25.6534 95.6838C25.6777 95.6859 25.702 95.6859 25.7264 95.6859C25.7487 95.6859 25.771 95.6859 25.7933 95.6859C25.8157 95.6859 25.838 95.6838 25.8623 95.6838C25.8846 95.6818 25.909 95.6818 25.9313 95.6798C25.9516 95.6778 25.9739 95.6758 25.9942 95.6738C26.0165 95.6717 26.0368 95.6677 26.0591 95.6657C26.0815 95.6616 26.1017 95.6596 26.1241 95.6556C26.1464 95.6516 26.1667 95.6475 26.189 95.6435C26.2012 95.6415 26.2133 95.6374 26.2255 95.6354C26.2275 95.6354 26.2296 95.6354 26.2316 95.6334C26.2377 95.6314 26.2438 95.6314 26.2499 95.6293C26.2701 95.6253 26.2904 95.6192 26.3127 95.6152C26.333 95.6092 26.3554 95.6051 26.3756 95.5991C26.3959 95.593 26.4162 95.587 26.4385 95.5809C26.4588 95.5748 26.4791 95.5688 26.4994 95.5627C26.5116 95.5587 26.5238 95.5546 26.5359 95.5506C26.538 95.5506 26.54 95.5486 26.542 95.5486C26.5481 95.5466 26.5542 95.5446 26.5623 95.5425C26.5826 95.5345 26.6029 95.5284 26.6252 95.5203C26.6455 95.5123 26.6658 95.5042 26.6881 95.4961C26.7084 95.488 26.7287 95.48 26.751 95.4719C26.7713 95.4638 26.7936 95.4537 26.8139 95.4456C26.8301 95.4396 26.8464 95.4315 26.8606 95.4234C26.8626 95.4234 26.8626 95.4214 26.8646 95.4214C26.8687 95.4194 26.8727 95.4174 26.8768 95.4154C26.8971 95.4053 26.9194 95.3952 26.9397 95.3851C26.962 95.375 26.9823 95.3649 27.0046 95.3528C27.0269 95.3427 27.0472 95.3306 27.0695 95.3185C27.0919 95.3064 27.1121 95.2942 27.1345 95.2821C27.1547 95.272 27.173 95.2599 27.1933 95.2498C27.1953 95.2478 27.1974 95.2478 27.2014 95.2458C27.2237 95.2317 27.2481 95.2195 27.2704 95.2054C27.2927 95.1913 27.3171 95.1772 27.3394 95.163C27.3617 95.1489 27.384 95.1348 27.4084 95.1186C27.4307 95.1045 27.455 95.0883 27.4773 95.0722C27.4915 95.0621 27.5057 95.052 27.52 95.0439C27.522 95.0419 27.526 95.0399 27.5281 95.0379C27.5362 95.0318 27.5443 95.0278 27.5504 95.0217C27.5747 95.0056 27.5991 94.9874 27.6234 94.9692C27.6478 94.9511 27.6721 94.9329 27.6965 94.9167C27.7228 94.8966 27.7492 94.8764 27.7736 94.8562C27.7959 94.838 27.8182 94.8219 27.8405 94.8037C27.8425 94.8017 27.8446 94.8017 27.8446 94.7997C27.8466 94.7976 27.8507 94.7956 27.8527 94.7936C27.8791 94.7714 27.9054 94.7492 27.9318 94.727C27.9602 94.7028 27.9907 94.6785 28.0191 94.6523C28.0495 94.6261 28.0799 94.5978 28.1104 94.5695C28.1205 94.5594 28.1327 94.5493 28.1428 94.5393C28.1469 94.5352 28.1509 94.5312 28.155 94.5271C28.1692 94.513 28.1854 94.4989 28.1996 94.4868C28.2362 94.4524 28.2727 94.4161 28.3092 94.3798C28.3457 94.3434 28.3822 94.3051 28.4188 94.2667C28.4248 94.2607 28.4309 94.2546 28.437 94.2486C28.4451 94.2405 28.4512 94.2324 28.4593 94.2264C28.4918 94.19 28.5263 94.1557 28.5588 94.1194C28.6135 94.0588 28.6683 93.9962 28.7211 93.9316L28.7231 93.9296C28.8245 93.8085 28.9219 93.6833 29.0153 93.5541C29.0213 93.544 29.0295 93.536 29.0356 93.5259C29.0802 93.4633 29.1248 93.4007 29.1674 93.3381C29.1776 93.324 29.1857 93.3078 29.1938 93.2937C29.2871 93.1524 29.3784 93.0111 29.4637 92.8637V92.8617C29.5042 92.7911 29.5448 92.7184 29.5834 92.6457C29.6097 92.5973 29.6341 92.5468 29.6605 92.4984C29.6645 92.4923 29.6665 92.4842 29.6706 92.4782C29.6726 92.4741 29.6747 92.4681 29.6787 92.464C29.7051 92.4116 29.7315 92.357 29.7558 92.3046C29.7781 92.2581 29.7984 92.2117 29.8207 92.1653C29.8289 92.1451 29.839 92.1249 29.8471 92.1047C29.8491 92.0987 29.8532 92.0906 29.8552 92.0845C29.8613 92.0684 29.8694 92.0522 29.8755 92.0381C29.8938 91.9977 29.91 91.9553 29.9283 91.9129C29.9425 91.8766 29.9567 91.8403 29.9709 91.8039C29.9851 91.7696 29.9973 91.7353 30.0094 91.701C30.0094 91.701 30.0094 91.699 30.0115 91.699C30.0115 91.699 30.0115 91.6969 30.0135 91.6969C30.0257 91.6626 30.0399 91.6263 30.052 91.592C30.0642 91.5597 30.0744 91.5274 30.0845 91.4951C30.0946 91.4628 30.1048 91.4305 30.117 91.3982C30.1271 91.3659 30.1373 91.3336 30.1474 91.3013C30.1555 91.273 30.1657 91.2427 30.1738 91.2145C30.1819 91.1862 30.19 91.1559 30.1981 91.1277C30.2062 91.0994 30.2143 91.0691 30.2204 91.0409C30.2286 91.0126 30.2346 90.9843 30.2428 90.9561C30.2468 90.9399 30.2509 90.9238 30.2549 90.9076C30.2549 90.9056 30.257 90.9016 30.257 90.8996C30.259 90.8915 30.261 90.8834 30.263 90.8733C30.2691 90.8471 30.2752 90.8188 30.2813 90.7926C30.2874 90.7663 30.2935 90.7381 30.2975 90.7118C30.3036 90.6856 30.3077 90.6593 30.3138 90.6311C30.3178 90.6048 30.3239 90.5786 30.328 90.5523C30.33 90.5382 30.332 90.5241 30.3341 90.5099C30.3341 90.5079 30.3341 90.5039 30.3361 90.5019C30.3381 90.4938 30.3381 90.4837 30.3401 90.4756C30.3442 90.4494 30.3483 90.4231 30.3523 90.3969C30.3564 90.3707 30.3584 90.3444 30.3625 90.3202C30.3665 90.2939 30.3685 90.2697 30.3706 90.2435C30.3726 90.2172 30.3767 90.193 30.3787 90.1668C30.3807 90.1486 30.3807 90.1324 30.3827 90.1143C30.3827 90.1123 30.3827 90.1102 30.3827 90.1082C30.3827 90.1022 30.3848 90.0961 30.3848 90.0901C30.3868 90.0638 30.3888 90.0396 30.3909 90.0133C30.3929 89.9871 30.3929 89.9629 30.3949 89.9366C30.397 89.9104 30.397 89.8862 30.397 89.8599C30.397 89.8337 30.399 89.8095 30.399 89.7832C30.399 89.763 30.399 89.7428 30.399 89.7227L28.8834 88.8506Z" fill="#D6A200"/>
<path d="M51.6806 46.232C51.6928 46.2462 51.707 46.2603 51.7192 46.2744C51.7699 46.333 51.8186 46.3956 51.8612 46.4622C51.8673 46.4723 51.8734 46.4824 51.8795 46.4925C51.9221 46.5611 51.9627 46.6317 51.9992 46.7085C52.0012 46.7105 52.0012 46.7125 52.0032 46.7145C52.0418 46.7993 52.0783 46.8881 52.1087 46.981C52.1108 46.985 52.1108 46.987 52.1128 46.9911C52.1432 47.086 52.1696 47.1849 52.1899 47.2878C52.1899 47.2898 52.1919 47.2939 52.1919 47.2959C52.2122 47.3988 52.2284 47.5079 52.2406 47.6209C52.2406 47.6229 52.2406 47.627 52.2406 47.629C52.2508 47.744 52.2568 47.8631 52.2568 47.9883L53.7684 48.8624C53.7684 48.8563 53.7684 48.8523 53.7684 48.8462C53.7684 48.82 53.7684 48.7938 53.7664 48.7675C53.7664 48.7413 53.7643 48.715 53.7643 48.6908C53.7623 48.6646 53.7623 48.6403 53.7603 48.6141C53.7582 48.5879 53.7562 48.5636 53.7542 48.5374C53.7542 48.5253 53.7522 48.5132 53.7501 48.501C53.7501 48.497 53.7501 48.495 53.7501 48.491C53.7481 48.4788 53.7481 48.4687 53.7461 48.4566C53.744 48.4304 53.74 48.4041 53.7359 48.3779C53.7319 48.3517 53.7298 48.3274 53.7258 48.3012C53.7217 48.2729 53.7177 48.2467 53.7116 48.2184C53.7075 48.2003 53.7055 48.1821 53.7014 48.1639C53.7014 48.1619 53.6994 48.1579 53.6994 48.1559C53.6974 48.1498 53.6974 48.1417 53.6954 48.1357C53.6893 48.1094 53.6832 48.0812 53.6771 48.0549C53.669 48.0246 53.6629 47.9964 53.6548 47.9681C53.6467 47.9378 53.6385 47.9076 53.6284 47.8793C53.6264 47.8732 53.6243 47.8672 53.6223 47.8611C53.6203 47.8571 53.6203 47.8551 53.6183 47.851C53.6122 47.8308 53.6061 47.8127 53.6 47.7925C53.5878 47.7562 53.5736 47.7218 53.5594 47.6875C53.5452 47.6532 53.531 47.6189 53.5148 47.5866C53.5148 47.5846 53.5127 47.5846 53.5127 47.5825C53.5107 47.5805 53.5107 47.5785 53.5087 47.5765C53.4904 47.5361 53.4701 47.4978 53.4499 47.4614C53.4296 47.4271 53.4093 47.3928 53.389 47.3605C53.3829 47.3504 53.3768 47.3403 53.3707 47.3322C53.3667 47.3282 53.3646 47.3221 53.3626 47.3181C53.32 47.2555 53.2754 47.199 53.2287 47.1445C53.2165 47.1304 53.2023 47.1162 53.1881 47.1021C53.1475 47.0577 53.1049 47.0173 53.0603 46.979C53.0441 46.9648 53.0278 46.9507 53.0116 46.9366C52.9528 46.8901 52.8919 46.8457 52.827 46.8094L51.3154 45.9353C51.3804 45.9716 51.4412 46.016 51.5001 46.0625C51.5163 46.0766 51.5325 46.0907 51.5488 46.1049C51.5954 46.1473 51.638 46.1876 51.6806 46.232Z" fill="#6B6B6B"/>
<path d="M41.8323 55.7215L40.3208 54.8474L40.3979 82.2349L41.9115 83.109L41.8323 55.7215Z" fill="#9B9B9B"/>
<path d="M39.7445 53.0893C39.7587 53.1035 39.7709 53.1176 39.7851 53.1317C39.8358 53.1903 39.8845 53.2529 39.9271 53.3195C39.9332 53.3296 39.9393 53.3397 39.9454 53.3497C39.988 53.4184 40.0286 53.489 40.0651 53.5658C40.0671 53.5678 40.0671 53.5698 40.0692 53.5718C40.1077 53.6566 40.1442 53.7454 40.1747 53.8383C40.1767 53.8423 40.1767 53.8463 40.1787 53.8484C40.2091 53.9432 40.2355 54.0422 40.2558 54.1451C40.2558 54.1471 40.2578 54.1512 40.2578 54.1532C40.2781 54.2582 40.2944 54.3651 40.3065 54.4782C40.3065 54.4802 40.3065 54.4843 40.3065 54.4863C40.3167 54.6013 40.3228 54.7204 40.3228 54.8456L41.8343 55.7197C41.8343 55.7136 41.8343 55.7096 41.8343 55.7035C41.8343 55.6773 41.8343 55.6511 41.8323 55.6248C41.8323 55.5986 41.8302 55.5723 41.8302 55.5481C41.8282 55.5219 41.8282 55.4976 41.8262 55.4734C41.8242 55.4472 41.8221 55.4229 41.8201 55.3967C41.8181 55.3846 41.8181 55.3725 41.816 55.3604C41.816 55.3563 41.816 55.3543 41.816 55.3503C41.814 55.3382 41.814 55.3281 41.812 55.316C41.81 55.2897 41.8059 55.2635 41.8018 55.2372C41.7978 55.211 41.7958 55.1868 41.7917 55.1605C41.7876 55.1323 41.7836 55.106 41.7775 55.0777C41.7734 55.0596 41.7714 55.0414 41.7674 55.0232C41.7674 55.0212 41.7653 55.0172 41.7653 55.0152C41.7633 55.0091 41.7633 55.0031 41.7613 54.995C41.7552 54.9687 41.7491 54.9405 41.743 54.9142C41.7349 54.884 41.7288 54.8557 41.7207 54.8274C41.7126 54.7972 41.7045 54.7669 41.6943 54.7386C41.6923 54.7326 41.6903 54.7265 41.6882 54.7204C41.6862 54.7164 41.6862 54.7144 41.6842 54.7103C41.6781 54.6902 41.672 54.672 41.6659 54.6538C41.6537 54.6175 41.6395 54.5832 41.6253 54.5489C41.6111 54.5145 41.5969 54.4802 41.5807 54.4479C41.5807 54.4459 41.5787 54.4459 41.5787 54.4439C41.5766 54.4419 41.5766 54.4398 41.5746 54.4378C41.5563 54.3995 41.5361 54.3591 41.5158 54.3228C41.4955 54.2864 41.4752 54.2541 41.4549 54.2218C41.4488 54.2117 41.4427 54.2016 41.4366 54.1936C41.4346 54.1895 41.4306 54.1835 41.4285 54.1794C41.3859 54.1169 41.3413 54.0603 41.2946 54.0058C41.2824 53.9917 41.2682 53.9776 41.254 53.9634C41.2135 53.919 41.1709 53.8786 41.1262 53.8403C41.11 53.8262 41.0938 53.812 41.0775 53.7979C41.0187 53.7515 40.9578 53.7071 40.8929 53.6707L39.3813 52.7966C39.4463 52.833 39.5071 52.8774 39.566 52.9238C39.5822 52.9379 39.5984 52.9521 39.6147 52.9662C39.6613 53.0046 39.7039 53.0449 39.7445 53.0893Z" fill="#6B6B6B"/>
<path d="M30.3949 89.7245L28.8833 88.8504L28.8042 61.4629L30.3178 62.337L30.3949 89.7245Z" fill="#9B9B9B"/>
<path d="M28.2283 59.7046C28.2405 59.7188 28.2547 59.7329 28.2689 59.747C28.3196 59.8056 28.3683 59.8682 28.413 59.9348C28.419 59.9449 28.4251 59.955 28.4312 59.963C28.4738 60.0317 28.5144 60.1023 28.5509 60.179C28.553 60.1811 28.553 60.1831 28.555 60.1851C28.5935 60.2699 28.6301 60.3587 28.6605 60.4516C28.6625 60.4556 28.6625 60.4576 28.6645 60.4617C28.695 60.5565 28.7214 60.6555 28.7416 60.7584C28.7416 60.7604 28.7437 60.7645 28.7437 60.7665C28.764 60.8694 28.7802 60.9784 28.7924 61.0915C28.7924 61.0955 28.7924 61.0975 28.7924 61.1016C28.8025 61.2166 28.8086 61.3357 28.8086 61.4609L30.3201 62.335C30.3201 62.3289 30.3201 62.3249 30.3201 62.3188C30.3201 62.2926 30.3201 62.2664 30.3181 62.2401C30.3181 62.2139 30.3161 62.1897 30.3161 62.1634C30.3141 62.1372 30.3141 62.1129 30.312 62.0887C30.31 62.0625 30.308 62.0383 30.3059 62.012C30.3059 61.9999 30.3039 61.9878 30.3019 61.9757C30.3019 61.9737 30.3019 61.9696 30.3019 61.9676C30.2999 61.9555 30.2999 61.9434 30.2978 61.9333C30.2958 61.907 30.2917 61.8808 30.2877 61.8546C30.2836 61.8283 30.2816 61.8041 30.2775 61.7778C30.2735 61.7496 30.2694 61.7233 30.2633 61.6951C30.2593 61.6769 30.2572 61.6587 30.2532 61.6406C30.2532 61.6386 30.2512 61.6345 30.2512 61.6325C30.2491 61.6264 30.2491 61.6184 30.2471 61.6123C30.241 61.5861 30.2349 61.5578 30.2288 61.5316C30.2207 61.5013 30.2146 61.473 30.2065 61.4448C30.1984 61.4145 30.1903 61.3842 30.1801 61.3559C30.1781 61.3499 30.1761 61.3438 30.1741 61.3378C30.172 61.3337 30.172 61.3297 30.17 61.3277C30.1639 61.3095 30.1578 61.2893 30.1517 61.2711C30.1396 61.2348 30.1254 61.2005 30.1112 61.1662C30.097 61.1319 30.0828 61.0975 30.0665 61.0652C30.0665 61.0632 30.0645 61.0632 30.0645 61.0612C30.0625 61.0592 30.0625 61.0572 30.0604 61.0531C30.0422 61.0148 30.0219 60.9744 30.0016 60.9381C29.9813 60.9037 29.961 60.8694 29.9407 60.8371C29.9346 60.827 29.9286 60.8169 29.9225 60.8069C29.9204 60.8028 29.9164 60.7968 29.9144 60.7927C29.8738 60.7301 29.8271 60.6736 29.7804 60.6191C29.7683 60.605 29.7541 60.5908 29.7399 60.5767C29.6993 60.5323 29.6567 60.4919 29.612 60.4536C29.5958 60.4394 29.5796 60.4253 29.5634 60.4112C29.5045 60.3648 29.4437 60.3203 29.3787 60.284L27.8672 59.4099C27.9321 59.4462 27.993 59.4907 28.0518 59.5371C28.068 59.5512 28.0843 59.5654 28.1005 59.5795C28.1451 59.6199 28.1878 59.6602 28.2283 59.7046Z" fill="#6B6B6B"/>
<path d="M6.0625 67.4019L7.54361 111.718L69.8961 75.9006L71.1216 30.03L6.0625 67.4019ZM27.1916 95.2477C25.4163 96.2671 23.9717 95.4475 23.9676 93.4167L23.8905 66.0292C23.8845 64.0004 25.3189 61.5276 27.0942 60.5081C28.8695 59.4887 30.3141 60.3083 30.3181 62.337L30.3952 89.7245C30.4013 91.7553 28.9669 94.2282 27.1916 95.2477ZM38.7077 88.6324C36.9324 89.6519 35.4878 88.8323 35.4837 86.8015L35.4067 59.414C35.4006 57.3852 36.835 54.9123 38.6103 53.8929C40.3856 52.8735 41.8302 53.693 41.8342 55.7218L41.9113 83.1093C41.9174 85.1401 40.481 87.613 38.7077 88.6324ZM50.6418 81.777C48.8665 82.7964 47.4219 81.9768 47.4158 79.946L47.3387 52.5585C47.3326 50.5298 48.7691 48.0569 50.5423 47.0374C52.3176 46.018 53.7622 46.8376 53.7663 48.8664L53.8434 76.2539C53.8515 78.2826 52.4191 80.7555 50.6418 81.777Z" fill="#B4B4B4"/>
<path d="M6.06232 67.4019L4.55078 66.5278L6.03189 110.844L7.54546 111.718L6.06232 67.4019Z" fill="#D8A300"/>
<path d="M69.6099 29.1538L4.55078 66.5277L6.06232 67.4018L71.1234 30.0279L69.6099 29.1538Z" fill="#E1AA00"/>
<path d="M116.011 100.131L51.5219 136.176L4.92383 110.196L70.2751 74.9597L116.011 100.131Z" fill="#6C6C6C"/>
<path d="M51.52 136.177L51.518 136.95L4.91992 110.969L4.92195 110.196L51.52 136.177Z" fill="#7D5E00"/>
<path d="M114.699 56.9188L114.329 101.102L68.4941 75.1556L68.5834 30.8374L114.699 56.9188Z" fill="#949494"/>
<path d="M114.698 56.9186L116.38 55.9456L116.009 100.13L114.329 101.101L114.698 56.9186Z" fill="#A3A3A3"/>
<path d="M68.584 30.8374L70.2639 29.8665L116.381 55.9458L114.699 56.9188L68.584 30.8374Z" fill="#DEA800"/>
<path d="M98.1646 99.8745C98.1646 99.9997 98.1605 100.129 98.1484 100.258C98.1484 100.26 98.1484 100.262 98.1484 100.264C98.1382 100.391 98.122 100.52 98.1017 100.65C98.1017 100.652 98.1017 100.656 98.0997 100.658C98.0794 100.787 98.053 100.918 98.0226 101.047C98.0226 101.049 98.0206 101.053 98.0206 101.055C97.9901 101.187 97.9536 101.318 97.9151 101.451C97.9151 101.451 97.9151 101.451 97.9151 101.453C97.8745 101.586 97.8298 101.72 97.7811 101.851C97.7811 101.851 97.7811 101.851 97.7811 101.853C97.7324 101.982 97.6817 102.111 97.6249 102.238C97.6229 102.244 97.6188 102.253 97.6168 102.259C97.562 102.384 97.5032 102.509 97.4403 102.632C97.4362 102.638 97.4342 102.644 97.4301 102.652C97.3672 102.775 97.3003 102.896 97.2313 103.018C97.1461 103.165 97.0548 103.306 96.9615 103.448C96.9026 103.534 96.8438 103.621 96.7809 103.706C96.6876 103.835 96.5902 103.96 96.4887 104.081C96.4035 104.184 96.3142 104.283 96.225 104.378C96.2169 104.386 96.2108 104.394 96.2047 104.4C96.1134 104.497 96.0201 104.59 95.9247 104.679C95.9206 104.683 95.9166 104.687 95.9105 104.691C95.8131 104.782 95.7137 104.869 95.6102 104.952C95.6082 104.954 95.6062 104.954 95.6041 104.956C95.5027 105.038 95.3972 105.117 95.2917 105.19C95.2897 105.192 95.2856 105.194 95.2836 105.196C95.176 105.268 95.0685 105.337 94.9589 105.402C94.8473 105.466 94.7378 105.523 94.6303 105.571C94.6282 105.571 94.6282 105.573 94.6262 105.573C94.5187 105.622 94.4132 105.664 94.3097 105.698C94.3077 105.698 94.3056 105.7 94.3036 105.7C94.2001 105.735 94.0987 105.763 93.9993 105.785C93.9972 105.785 93.9952 105.785 93.9932 105.787C93.8938 105.809 93.7943 105.824 93.699 105.832C93.6036 105.84 93.5083 105.842 93.417 105.838H93.4149C93.3257 105.834 93.2405 105.822 93.1573 105.805C93.1532 105.805 93.1492 105.803 93.1431 105.803C93.0619 105.787 92.9808 105.763 92.9057 105.735C92.9016 105.733 92.8976 105.731 92.8915 105.729C92.8144 105.698 92.7413 105.666 92.6724 105.624L94.1839 106.498C94.2265 106.522 94.2691 106.544 94.3137 106.564C94.3442 106.579 94.3746 106.591 94.405 106.603C94.4091 106.605 94.4132 106.607 94.4192 106.609C94.4233 106.611 94.4253 106.611 94.4294 106.613C94.4619 106.625 94.4963 106.635 94.5288 106.645C94.5592 106.653 94.5897 106.661 94.6201 106.669C94.6323 106.671 94.6445 106.675 94.6566 106.677C94.6607 106.677 94.6647 106.68 94.6708 106.68C94.681 106.682 94.6931 106.684 94.7033 106.686C94.7317 106.69 94.7581 106.696 94.7865 106.698C94.8108 106.702 94.8352 106.704 94.8595 106.706C94.8818 106.708 94.9042 106.71 94.9285 106.71H94.9305C94.9326 106.71 94.9326 106.71 94.9346 106.71C94.9589 106.712 94.9833 106.712 95.0076 106.712C95.0299 106.712 95.0523 106.712 95.0746 106.712C95.0969 106.712 95.1192 106.71 95.1436 106.71C95.1659 106.708 95.1882 106.708 95.2125 106.706C95.2328 106.704 95.2552 106.702 95.2775 106.7C95.2978 106.698 95.3201 106.694 95.3424 106.692C95.3647 106.688 95.385 106.686 95.4073 106.682C95.4296 106.677 95.4499 106.673 95.4722 106.669C95.4844 106.667 95.4966 106.663 95.5088 106.661C95.5108 106.661 95.5128 106.661 95.5149 106.659C95.5209 106.657 95.527 106.657 95.5351 106.655C95.5554 106.651 95.5757 106.645 95.598 106.641C95.6183 106.635 95.6406 106.631 95.6609 106.625C95.6812 106.619 95.7015 106.613 95.7238 106.607C95.7441 106.601 95.7644 106.595 95.7847 106.589C95.7969 106.585 95.809 106.581 95.8212 106.577C95.8232 106.577 95.8253 106.575 95.8273 106.575C95.8334 106.573 95.8415 106.57 95.8476 106.568C95.8679 106.56 95.8882 106.554 95.9105 106.546C95.9308 106.538 95.9511 106.53 95.9734 106.522C95.9937 106.514 96.014 106.506 96.0363 106.498C96.0566 106.49 96.0789 106.48 96.0992 106.472C96.1154 106.466 96.1296 106.457 96.1458 106.449C96.1479 106.449 96.1479 106.447 96.1499 106.447C96.154 106.445 96.158 106.443 96.1621 106.441C96.1824 106.431 96.2047 106.421 96.225 106.411C96.2473 106.401 96.2676 106.391 96.2899 106.379C96.3122 106.369 96.3325 106.357 96.3548 106.344C96.3771 106.332 96.3974 106.32 96.4197 106.308C96.44 106.298 96.4583 106.286 96.4786 106.276C96.4806 106.274 96.4826 106.274 96.4867 106.272C96.509 106.258 96.5334 106.245 96.5557 106.231C96.578 106.217 96.6023 106.203 96.6247 106.189C96.647 106.175 96.6693 106.161 96.6936 106.145C96.716 106.13 96.7403 106.114 96.7626 106.098C96.7768 106.088 96.791 106.078 96.8052 106.07C96.8073 106.068 96.8093 106.066 96.8134 106.064C96.8215 106.058 96.8296 106.054 96.8377 106.048C96.8621 106.032 96.8864 106.013 96.9107 105.995C96.9351 105.977 96.9594 105.959 96.9838 105.943C97.0102 105.923 97.0365 105.902 97.0629 105.882C97.0852 105.864 97.1075 105.848 97.1299 105.83C97.1319 105.828 97.1339 105.828 97.136 105.826C97.138 105.824 97.142 105.822 97.1441 105.82C97.1704 105.797 97.1968 105.775 97.2232 105.753C97.2516 105.729 97.282 105.704 97.3104 105.678C97.3409 105.652 97.3713 105.624 97.4017 105.595C97.4119 105.585 97.4241 105.575 97.4342 105.565C97.4383 105.561 97.4423 105.557 97.4484 105.553C97.4626 105.539 97.4788 105.525 97.493 105.513C97.5296 105.478 97.5661 105.442 97.6026 105.406C97.6391 105.369 97.6756 105.331 97.7122 105.293C97.7182 105.287 97.7243 105.281 97.7284 105.275C97.7365 105.266 97.7426 105.258 97.7507 105.25C97.7832 105.214 97.8177 105.18 97.8501 105.143C97.9049 105.083 97.9597 105.02 98.0124 104.956L98.0145 104.954C98.1159 104.832 98.2133 104.707 98.3066 104.578C98.3127 104.568 98.3208 104.56 98.3289 104.55C98.3736 104.487 98.4182 104.427 98.4608 104.362C98.471 104.348 98.4791 104.332 98.4892 104.318C98.5826 104.176 98.6739 104.035 98.7591 103.888C98.7591 103.888 98.7591 103.888 98.7591 103.886C98.7997 103.815 98.8402 103.742 98.8788 103.67C98.9052 103.621 98.9315 103.571 98.9559 103.52C98.9599 103.514 98.962 103.508 98.966 103.502C98.9681 103.498 98.9701 103.494 98.9741 103.488C99.0005 103.435 99.0269 103.383 99.0512 103.328C99.0736 103.282 99.0938 103.236 99.1162 103.189C99.1263 103.169 99.1344 103.149 99.1425 103.129C99.1446 103.123 99.1486 103.115 99.1507 103.108C99.1567 103.092 99.1649 103.078 99.1709 103.062C99.1892 103.02 99.2054 102.979 99.2237 102.937C99.2379 102.901 99.2521 102.864 99.2663 102.828C99.2805 102.794 99.2927 102.757 99.3069 102.723V102.721V102.719C99.3191 102.685 99.3333 102.648 99.3454 102.614C99.3576 102.582 99.3677 102.549 99.3779 102.517C99.388 102.485 99.4002 102.452 99.4104 102.42C99.4205 102.388 99.4306 102.355 99.4408 102.323V102.321V102.319C99.4489 102.291 99.457 102.263 99.4651 102.234C99.4732 102.206 99.4814 102.176 99.4895 102.148C99.4976 102.119 99.5057 102.089 99.5118 102.061C99.5199 102.032 99.526 102.004 99.5341 101.976C99.5382 101.96 99.5422 101.944 99.5463 101.928C99.5463 101.926 99.5483 101.921 99.5483 101.919C99.5503 101.911 99.5524 101.903 99.5544 101.895C99.5605 101.869 99.5666 101.841 99.5727 101.814C99.5787 101.788 99.5848 101.76 99.5889 101.734C99.595 101.707 99.599 101.681 99.6051 101.653C99.6092 101.627 99.6153 101.6 99.6193 101.574C99.6214 101.56 99.6234 101.546 99.6274 101.53C99.6274 101.528 99.6274 101.524 99.6295 101.522C99.6315 101.514 99.6315 101.504 99.6335 101.496C99.6376 101.469 99.6416 101.443 99.6457 101.417C99.6498 101.391 99.6518 101.364 99.6558 101.34C99.6599 101.314 99.6619 101.29 99.664 101.263C99.666 101.237 99.6701 101.213 99.6721 101.187C99.6741 101.168 99.6741 101.152 99.6761 101.134C99.6761 101.132 99.6761 101.13 99.6761 101.128C99.6761 101.122 99.6782 101.116 99.6782 101.11C99.6802 101.084 99.6822 101.059 99.6843 101.033C99.6863 101.007 99.6863 100.983 99.6883 100.957C99.6903 100.93 99.6903 100.906 99.6903 100.88C99.6903 100.854 99.6924 100.829 99.6924 100.803C99.6924 100.783 99.6924 100.763 99.6924 100.743L98.1646 99.8745Z" fill="#C6C6C6"/>
<path d="M86.231 106.732C86.231 106.857 86.2269 106.986 86.2147 107.115C86.2147 107.118 86.2147 107.12 86.2147 107.122C86.2046 107.249 86.1884 107.378 86.1681 107.507C86.1681 107.509 86.1681 107.513 86.166 107.515C86.1457 107.644 86.1194 107.776 86.0889 107.905C86.0889 107.907 86.0869 107.911 86.0869 107.913C86.026 108.177 85.9449 108.444 85.8475 108.706V108.708C85.7988 108.837 85.7481 108.965 85.6913 109.092C85.6892 109.098 85.6852 109.106 85.6832 109.112C85.6284 109.237 85.5695 109.362 85.5066 109.483C85.5026 109.489 85.5006 109.498 85.4965 109.504C85.4336 109.627 85.3687 109.748 85.2977 109.869C85.2124 110.016 85.1211 110.158 85.0278 110.299C84.969 110.386 84.9101 110.473 84.8472 110.557C84.7539 110.687 84.6565 110.812 84.5551 110.933C84.4699 111.036 84.3806 111.135 84.2913 111.23C84.2832 111.238 84.2771 111.246 84.269 111.254C84.1777 111.351 84.0844 111.444 83.989 111.532C83.9849 111.536 83.9809 111.54 83.9748 111.544C83.8774 111.635 83.778 111.722 83.6766 111.805C83.6745 111.807 83.6725 111.807 83.6725 111.809C83.5711 111.892 83.4655 111.97 83.36 112.043C83.358 112.045 83.356 112.047 83.3519 112.049C83.2444 112.122 83.1369 112.19 83.0273 112.255C82.9157 112.32 82.8062 112.376 82.6986 112.425C82.6966 112.425 82.6966 112.427 82.6946 112.427C82.587 112.475 82.4815 112.517 82.3781 112.552C82.376 112.552 82.374 112.554 82.372 112.554C82.2685 112.588 82.167 112.616 82.0676 112.639C82.0656 112.639 82.0636 112.639 82.0615 112.641C81.8607 112.683 81.6679 112.701 81.4853 112.691H81.4833C81.394 112.687 81.3088 112.675 81.2256 112.659C81.2216 112.659 81.2155 112.657 81.2114 112.657C81.1303 112.641 81.0511 112.616 80.974 112.588C80.97 112.586 80.9659 112.584 80.9598 112.582C80.8827 112.552 80.8097 112.52 80.7407 112.477L82.2523 113.351C82.2949 113.375 82.3375 113.398 82.3821 113.418C82.4125 113.432 82.443 113.444 82.4734 113.456C82.4775 113.458 82.4815 113.46 82.4876 113.462C82.4917 113.464 82.4937 113.464 82.4978 113.466C82.5302 113.478 82.5647 113.488 82.5972 113.499C82.6276 113.507 82.658 113.515 82.6885 113.523C82.7006 113.525 82.7128 113.529 82.725 113.531C82.7291 113.531 82.7331 113.533 82.7392 113.533C82.7493 113.535 82.7615 113.537 82.7717 113.539C82.8001 113.543 82.8264 113.549 82.8548 113.551C82.8792 113.555 82.9035 113.557 82.9279 113.559C82.9502 113.561 82.9746 113.563 82.9969 113.563H82.9989C83.0009 113.563 83.0009 113.563 83.003 113.563C83.0273 113.565 83.0517 113.565 83.076 113.565C83.0983 113.565 83.1206 113.565 83.143 113.565C83.1653 113.565 83.1876 113.563 83.2119 113.563C83.2343 113.561 83.2586 113.561 83.2809 113.559C83.3012 113.557 83.3235 113.555 83.3438 113.553C83.3641 113.551 83.3864 113.547 83.4087 113.545C83.4311 113.541 83.4514 113.539 83.4737 113.535C83.496 113.531 83.5163 113.527 83.5386 113.523C83.5508 113.521 83.5629 113.517 83.5751 113.515C83.5771 113.515 83.5792 113.515 83.5812 113.513C83.5873 113.511 83.5934 113.511 83.5995 113.509C83.6197 113.505 83.64 113.499 83.6624 113.495C83.6826 113.488 83.705 113.484 83.7253 113.478C83.7455 113.472 83.7658 113.466 83.7881 113.46C83.8084 113.454 83.8287 113.448 83.849 113.442C83.8612 113.438 83.8734 113.434 83.8855 113.43C83.8876 113.43 83.8896 113.428 83.8916 113.428C83.8977 113.426 83.9038 113.424 83.9119 113.422C83.9322 113.414 83.9525 113.408 83.9748 113.4C83.9951 113.392 84.0154 113.384 84.0377 113.375C84.058 113.367 84.0783 113.359 84.1006 113.351C84.1209 113.343 84.1432 113.333 84.1635 113.325C84.1797 113.319 84.196 113.311 84.2102 113.303C84.2122 113.303 84.2122 113.301 84.2142 113.301C84.2183 113.299 84.2223 113.297 84.2264 113.295C84.2467 113.285 84.269 113.275 84.2893 113.264C84.3116 113.254 84.3319 113.242 84.3542 113.232C84.3765 113.222 84.3968 113.21 84.4191 113.198C84.4415 113.186 84.4617 113.174 84.4841 113.161C84.5044 113.151 84.5226 113.139 84.5429 113.129C84.5449 113.127 84.547 113.127 84.551 113.125C84.5733 113.111 84.5977 113.099 84.62 113.085C84.6423 113.071 84.6667 113.056 84.689 113.042C84.7113 113.028 84.7336 113.014 84.758 112.998C84.7803 112.984 84.8046 112.968 84.8269 112.952C84.8412 112.941 84.8554 112.931 84.8696 112.923C84.8716 112.921 84.8736 112.919 84.8777 112.917C84.8858 112.911 84.8939 112.907 84.9 112.901C84.9243 112.885 84.9487 112.867 84.973 112.849C84.9974 112.83 85.0217 112.812 85.0461 112.796C85.0725 112.776 85.0988 112.756 85.1232 112.736C85.1455 112.717 85.1678 112.701 85.1901 112.683C85.1922 112.681 85.1942 112.681 85.1942 112.679C85.1962 112.677 85.2003 112.675 85.2023 112.673C85.2287 112.651 85.255 112.629 85.2814 112.606C85.3098 112.582 85.3403 112.558 85.3687 112.532C85.3991 112.505 85.4295 112.477 85.46 112.449C85.4701 112.439 85.4823 112.429 85.4924 112.419C85.4965 112.415 85.5005 112.411 85.5046 112.406C85.5188 112.392 85.535 112.378 85.5492 112.366C85.5858 112.332 85.6223 112.295 85.6588 112.259C85.6953 112.223 85.7318 112.184 85.7684 112.146C85.7745 112.14 85.7805 112.134 85.7846 112.128C85.7927 112.12 85.7988 112.112 85.8069 112.104C85.8394 112.067 85.8739 112.033 85.9063 111.997C85.9611 111.936 86.0159 111.874 86.0686 111.809L86.0707 111.807C86.1721 111.686 86.2695 111.561 86.3628 111.431C86.3689 111.421 86.377 111.413 86.3852 111.403C86.4298 111.341 86.4744 111.278 86.517 111.215C86.5272 111.201 86.5353 111.185 86.5434 111.171C86.6367 111.03 86.728 110.888 86.8133 110.741C86.8133 110.741 86.8133 110.739 86.8153 110.739C86.8559 110.668 86.8964 110.596 86.935 110.523C86.9614 110.475 86.9857 110.426 87.0121 110.376C87.0161 110.37 87.0182 110.362 87.0222 110.355C87.0243 110.351 87.0263 110.345 87.0304 110.341C87.0567 110.289 87.0831 110.234 87.1095 110.182C87.1318 110.135 87.1521 110.089 87.1744 110.043C87.1825 110.022 87.1927 110.002 87.2008 109.982C87.2048 109.974 87.2069 109.968 87.2109 109.962C87.217 109.946 87.2251 109.93 87.2312 109.915C87.2495 109.875 87.2657 109.833 87.284 109.79C87.2982 109.754 87.3124 109.718 87.3266 109.681C87.3408 109.647 87.3529 109.613 87.3651 109.578C87.3651 109.578 87.3651 109.576 87.3671 109.576C87.3671 109.576 87.3671 109.574 87.3692 109.574C87.3814 109.54 87.3956 109.504 87.4077 109.469C87.4199 109.437 87.43 109.405 87.4402 109.372C87.4503 109.34 87.4605 109.308 87.4727 109.275C87.4828 109.243 87.4929 109.211 87.5031 109.179C87.5112 109.15 87.5193 109.122 87.5295 109.092C87.5376 109.064 87.5457 109.033 87.5538 109.005C87.5619 108.977 87.57 108.946 87.5761 108.918C87.5842 108.89 87.5903 108.862 87.5984 108.833C87.6025 108.817 87.6066 108.801 87.6106 108.785C87.6106 108.783 87.6126 108.779 87.6126 108.777C87.6147 108.769 87.6167 108.761 87.6187 108.751C87.6248 108.722 87.6309 108.696 87.637 108.67C87.6431 108.644 87.6492 108.615 87.6532 108.589C87.6593 108.563 87.6634 108.537 87.6695 108.508C87.6735 108.482 87.6796 108.456 87.6837 108.43C87.6857 108.416 87.6877 108.401 87.6897 108.385C87.6897 108.383 87.6897 108.381 87.6918 108.377C87.6938 108.369 87.6938 108.359 87.6958 108.351C87.6999 108.325 87.704 108.298 87.708 108.272C87.7121 108.246 87.7141 108.22 87.7182 108.195C87.7222 108.169 87.7242 108.145 87.7263 108.119C87.7283 108.093 87.7324 108.068 87.7344 108.042C87.7364 108.024 87.7364 108.008 87.7384 107.99C87.7384 107.988 87.7384 107.986 87.7384 107.984C87.7384 107.977 87.7405 107.971 87.7405 107.965C87.7425 107.939 87.7445 107.915 87.7466 107.889C87.7486 107.862 87.7486 107.838 87.7506 107.812C87.7526 107.786 87.7526 107.761 87.7526 107.735C87.7526 107.709 87.7547 107.685 87.7547 107.659C87.7547 107.638 87.7547 107.618 87.7547 107.598L86.231 106.732Z" fill="#C6C6C6"/>
<path d="M99.5989 73.3614L98.0874 72.4873L98.1645 99.8748L99.6781 100.749L99.5989 73.3614Z" fill="#B7B7B7"/>
<path d="M74.7144 113.345C74.7144 113.47 74.7104 113.6 74.6982 113.729C74.6982 113.731 74.6982 113.733 74.6982 113.735C74.6881 113.862 74.6718 113.991 74.6515 114.12C74.6515 114.122 74.6515 114.124 74.6495 114.126C74.6292 114.256 74.6028 114.387 74.5724 114.518C74.5724 114.52 74.5704 114.522 74.5704 114.526C74.54 114.657 74.5034 114.791 74.4649 114.922C74.4243 115.055 74.3797 115.188 74.331 115.319V115.322C74.2823 115.451 74.2316 115.578 74.1747 115.707C74.1727 115.713 74.1687 115.721 74.1666 115.727C74.1119 115.852 74.053 115.978 73.9901 116.099C73.9861 116.105 73.984 116.113 73.98 116.119C73.9171 116.242 73.8522 116.363 73.7811 116.484C73.6959 116.632 73.6046 116.773 73.5113 116.914C73.4525 117.001 73.3936 117.088 73.3307 117.173C73.2374 117.302 73.14 117.427 73.0386 117.548C72.9533 117.651 72.8641 117.75 72.7748 117.845C72.7667 117.853 72.7606 117.861 72.7525 117.869C72.6612 117.966 72.5679 118.059 72.4725 118.148C72.4684 118.152 72.4623 118.156 72.4583 118.16C72.3609 118.251 72.2615 118.337 72.16 118.42C72.158 118.422 72.156 118.422 72.154 118.424C72.0525 118.507 71.947 118.586 71.8415 118.658C71.8395 118.66 71.8374 118.662 71.8334 118.664C71.7258 118.737 71.6183 118.806 71.5088 118.87C71.3972 118.935 71.2876 118.991 71.1801 119.04C71.178 119.04 71.178 119.042 71.176 119.042C71.0685 119.09 70.963 119.133 70.8595 119.167C70.8575 119.167 70.8554 119.169 70.8534 119.169C70.7499 119.203 70.6485 119.232 70.5491 119.254C70.5471 119.254 70.545 119.254 70.543 119.256C70.3421 119.298 70.1494 119.316 69.9668 119.306H69.9648C69.8755 119.302 69.7903 119.29 69.7071 119.274C69.703 119.274 69.6969 119.272 69.6929 119.272C69.6117 119.256 69.5326 119.232 69.4555 119.203C69.4514 119.201 69.4474 119.199 69.4413 119.197C69.3642 119.167 69.2912 119.135 69.2222 119.092L70.7337 119.967C70.7763 119.991 70.8189 120.013 70.8636 120.033C70.894 120.047 70.9244 120.059 70.9549 120.071C70.9589 120.073 70.963 120.076 70.9691 120.078C70.9731 120.08 70.9752 120.08 70.9792 120.082C71.0117 120.094 71.0462 120.104 71.0786 120.114C71.1091 120.122 71.1395 120.13 71.1699 120.138C71.1821 120.14 71.1943 120.144 71.2064 120.146C71.2105 120.146 71.2146 120.148 71.2206 120.148C71.2308 120.15 71.243 120.152 71.2531 120.154C71.2815 120.158 71.3079 120.164 71.3363 120.166C71.3606 120.17 71.385 120.172 71.4093 120.174C71.4317 120.176 71.456 120.178 71.4783 120.178H71.4804C71.4824 120.178 71.4824 120.178 71.4844 120.178C71.5088 120.18 71.5331 120.18 71.5575 120.18C71.5798 120.18 71.6021 120.18 71.6244 120.18C71.6467 120.18 71.669 120.178 71.6934 120.178C71.7157 120.176 71.7401 120.176 71.7624 120.174C71.7827 120.172 71.805 120.17 71.8253 120.168C71.8476 120.166 71.8679 120.162 71.8902 120.16C71.9125 120.156 71.9328 120.154 71.9551 120.15C71.9774 120.146 71.9977 120.142 72.02 120.138C72.0322 120.136 72.0444 120.132 72.0566 120.13C72.0586 120.13 72.0606 120.13 72.0626 120.128C72.0687 120.126 72.0748 120.126 72.0809 120.124C72.1012 120.12 72.1215 120.114 72.1438 120.11C72.1641 120.104 72.1864 120.1 72.2067 120.094C72.227 120.088 72.2473 120.082 72.2696 120.076C72.2899 120.069 72.3102 120.063 72.3305 120.057C72.3426 120.053 72.3548 120.049 72.367 120.045C72.369 120.045 72.371 120.043 72.3731 120.043C72.3792 120.041 72.3852 120.039 72.3934 120.037C72.4137 120.029 72.4339 120.023 72.4563 120.015C72.4765 120.007 72.4968 119.999 72.5192 119.991C72.5394 119.983 72.5597 119.975 72.582 119.967C72.6023 119.958 72.6247 119.948 72.6449 119.94C72.6612 119.934 72.6774 119.926 72.6916 119.918C72.6936 119.918 72.6936 119.916 72.6957 119.916C72.6997 119.914 72.7038 119.912 72.7078 119.91C72.7281 119.9 72.7505 119.89 72.7707 119.88C72.7931 119.87 72.8133 119.86 72.8357 119.847C72.858 119.837 72.8783 119.825 72.9006 119.813C72.9229 119.801 72.9432 119.789 72.9655 119.777C72.9858 119.767 73.0041 119.755 73.0244 119.744C73.0264 119.742 73.0284 119.742 73.0325 119.74C73.0548 119.726 73.0791 119.714 73.1015 119.7C73.1238 119.686 73.1481 119.672 73.1704 119.658C73.1928 119.644 73.2151 119.629 73.2394 119.613C73.2617 119.599 73.2861 119.583 73.3084 119.567C73.3226 119.557 73.3368 119.547 73.351 119.539C73.353 119.537 73.3551 119.535 73.3591 119.532C73.3672 119.526 73.3754 119.522 73.3814 119.516C73.4058 119.5 73.4301 119.482 73.4545 119.464C73.4788 119.446 73.5032 119.428 73.5275 119.411C73.5539 119.391 73.5803 119.371 73.6046 119.351C73.6269 119.333 73.6493 119.316 73.6716 119.298C73.6736 119.296 73.6756 119.296 73.6756 119.294C73.6777 119.292 73.6817 119.29 73.6838 119.288C73.7101 119.266 73.7365 119.244 73.7629 119.222C73.7913 119.197 73.8217 119.173 73.8501 119.147C73.8806 119.121 73.911 119.092 73.9414 119.064C73.9516 119.054 73.9637 119.044 73.9739 119.034C73.9779 119.03 73.982 119.026 73.9861 119.022C74.0003 119.008 74.0165 118.994 74.0307 118.981C74.0672 118.947 74.1037 118.911 74.1403 118.874C74.1768 118.838 74.2133 118.8 74.2498 118.761C74.2559 118.755 74.262 118.749 74.2681 118.743C74.2762 118.735 74.2823 118.727 74.2904 118.721C74.3229 118.685 74.3574 118.65 74.3898 118.614C74.4446 118.553 74.4994 118.491 74.5521 118.426L74.5542 118.424C74.6556 118.303 74.753 118.178 74.8463 118.049C74.8524 118.039 74.8605 118.031 74.8666 118.02C74.9112 117.958 74.9559 117.895 74.9985 117.833C75.0086 117.819 75.0167 117.802 75.0249 117.788C75.1182 117.647 75.2095 117.506 75.2947 117.358V117.356C75.3353 117.286 75.3759 117.213 75.4144 117.14C75.4408 117.092 75.4651 117.041 75.4915 116.993C75.4956 116.987 75.4976 116.979 75.5017 116.973C75.5037 116.969 75.5057 116.963 75.5098 116.959C75.5362 116.906 75.5625 116.852 75.5889 116.799C75.6112 116.753 75.6315 116.706 75.6538 116.66C75.6619 116.64 75.6721 116.62 75.6802 116.599C75.6822 116.593 75.6863 116.585 75.6883 116.579C75.6944 116.563 75.7025 116.547 75.7086 116.533C75.7269 116.492 75.7431 116.45 75.7614 116.408C75.7756 116.371 75.7898 116.335 75.804 116.299C75.8182 116.264 75.8303 116.23 75.8425 116.196C75.8425 116.196 75.8425 116.194 75.8445 116.194C75.8445 116.194 75.8445 116.192 75.8466 116.192C75.8587 116.157 75.8729 116.121 75.8851 116.087C75.8973 116.054 75.9074 116.022 75.9176 115.99C75.9277 115.957 75.9399 115.925 75.95 115.893C75.9602 115.86 75.9703 115.828 75.9805 115.796C75.9886 115.768 75.9987 115.737 76.0069 115.709C76.015 115.681 76.0231 115.651 76.0312 115.622C76.0393 115.594 76.0474 115.564 76.0535 115.535C76.0616 115.507 76.0677 115.479 76.0758 115.451C76.0799 115.435 76.084 115.418 76.088 115.402C76.088 115.4 76.09 115.396 76.09 115.394C76.0921 115.386 76.0941 115.378 76.0961 115.368C76.1022 115.342 76.1083 115.313 76.1144 115.287C76.1205 115.261 76.1266 115.233 76.1306 115.206C76.1367 115.18 76.1408 115.154 76.1469 115.126C76.1509 115.099 76.157 115.073 76.1611 115.047C76.1631 115.033 76.1651 115.019 76.1671 115.005C76.1671 115.003 76.1671 114.999 76.1692 114.996C76.1712 114.988 76.1712 114.978 76.1732 114.97C76.1773 114.944 76.1813 114.918 76.1854 114.892C76.1895 114.865 76.1915 114.839 76.1955 114.815C76.1996 114.789 76.2016 114.764 76.2037 114.738C76.2057 114.712 76.2098 114.688 76.2118 114.661C76.2138 114.643 76.2138 114.627 76.2158 114.609C76.2158 114.607 76.2158 114.605 76.2158 114.603C76.2158 114.597 76.2179 114.591 76.2179 114.585C76.2199 114.558 76.2219 114.534 76.224 114.508C76.226 114.482 76.226 114.458 76.228 114.431C76.23 114.405 76.23 114.381 76.23 114.355C76.23 114.328 76.2321 114.304 76.2321 114.278C76.2321 114.258 76.2321 114.237 76.2321 114.217L74.7144 113.345Z" fill="#C6C6C6"/>
<path d="M97.5117 70.7291C97.5239 70.7433 97.5381 70.7574 97.5502 70.7715C97.601 70.8301 97.6497 70.8926 97.6923 70.9593C97.6983 70.9693 97.7044 70.9794 97.7105 70.9895C97.7531 71.0582 97.7937 71.1288 97.8302 71.2055C97.8323 71.2075 97.8323 71.2096 97.8343 71.2116C97.8728 71.2964 97.9094 71.3852 97.9398 71.478C97.9418 71.4821 97.9418 71.4841 97.9438 71.4881C97.9743 71.583 98.0007 71.6819 98.0209 71.7849C98.0209 71.7869 98.023 71.7909 98.023 71.793C98.0433 71.8959 98.0595 72.0049 98.0717 72.118C98.0717 72.12 98.0717 72.124 98.0717 72.126C98.0818 72.2411 98.0879 72.3602 98.0879 72.4854L99.5994 73.3595C99.5994 73.3534 99.5994 73.3494 99.5994 73.3433C99.5994 73.3171 99.5994 73.2908 99.5974 73.2646C99.5974 73.2383 99.5954 73.2121 99.5954 73.1879C99.5933 73.1616 99.5933 73.1374 99.5913 73.1112C99.5893 73.0849 99.5873 73.0607 99.5852 73.0345C99.5852 73.0223 99.5832 73.0102 99.5812 72.9981C99.5812 72.9941 99.5812 72.9921 99.5812 72.988C99.5791 72.9759 99.5791 72.9658 99.5771 72.9537C99.5751 72.9275 99.571 72.9012 99.567 72.875C99.5629 72.8487 99.5609 72.8245 99.5568 72.7983C99.5528 72.77 99.5487 72.7438 99.5426 72.7155C99.5386 72.6973 99.5365 72.6792 99.5325 72.661C99.5325 72.659 99.5305 72.6549 99.5305 72.6529C99.5284 72.6469 99.5284 72.6388 99.5264 72.6327C99.5203 72.6065 99.5142 72.5782 99.5081 72.552C99.5 72.5217 99.4939 72.4934 99.4858 72.4652C99.4777 72.4349 99.4696 72.4046 99.4594 72.3764C99.4574 72.3703 99.4554 72.3643 99.4534 72.3582C99.4513 72.3542 99.4513 72.3521 99.4493 72.3481C99.4432 72.3279 99.4371 72.3097 99.431 72.2896C99.4189 72.2532 99.4047 72.2189 99.3905 72.1846C99.3763 72.1503 99.3621 72.116 99.3458 72.0837C99.3458 72.0816 99.3438 72.0816 99.3438 72.0796C99.3418 72.0776 99.3418 72.0756 99.3397 72.0736C99.3215 72.0332 99.3012 71.9948 99.2809 71.9585C99.2606 71.9242 99.2403 71.8899 99.22 71.8576C99.2139 71.8475 99.2079 71.8374 99.2018 71.8293C99.1977 71.8253 99.1957 71.8192 99.1937 71.8152C99.151 71.7526 99.1064 71.6961 99.0597 71.6416C99.0476 71.6274 99.0334 71.6133 99.0192 71.5992C98.9786 71.5548 98.936 71.5144 98.8913 71.476C98.8751 71.4619 98.8589 71.4478 98.8427 71.4336C98.7838 71.3872 98.7229 71.3428 98.658 71.3065L97.1465 70.4324C97.2114 70.4687 97.2723 70.5131 97.3311 70.5596C97.3473 70.5737 97.3636 70.5878 97.3798 70.6019C97.4285 70.6443 97.4711 70.6847 97.5117 70.7291Z" fill="#A0A0A0"/>
<path d="M87.6654 80.2186L86.1519 79.3445L86.231 106.732L87.7425 107.606L87.6654 80.2186Z" fill="#B7B7B7"/>
<path d="M85.5756 77.5845C85.5898 77.5986 85.602 77.6127 85.6162 77.6269C85.6669 77.6854 85.7156 77.748 85.7582 77.8146C85.7643 77.8247 85.7704 77.8348 85.7764 77.8449C85.819 77.9135 85.8596 77.9842 85.8961 78.0609C85.8982 78.0629 85.8982 78.0649 85.9002 78.0669C85.9388 78.1517 85.9753 78.2405 86.0057 78.3334C86.0077 78.3374 86.0077 78.3415 86.0098 78.3435C86.0402 78.4384 86.0666 78.5373 86.0869 78.6402C86.0869 78.6422 86.0889 78.6463 86.0889 78.6483C86.1092 78.7533 86.1254 78.8603 86.1376 78.9733C86.1376 78.9753 86.1376 78.9794 86.1376 78.9814C86.1477 79.0965 86.1538 79.2156 86.1538 79.3407L87.6654 80.2148C87.6654 80.2087 87.6654 80.2047 87.6654 80.1987C87.6654 80.1724 87.6654 80.1462 87.6633 80.1199C87.6633 80.0937 87.6613 80.0674 87.6613 80.0432C87.6593 80.017 87.6593 79.9928 87.6572 79.9685C87.6552 79.9423 87.6532 79.9181 87.6512 79.8918C87.6491 79.8797 87.6491 79.8676 87.6471 79.8555C87.6471 79.8514 87.6471 79.8494 87.6471 79.8454C87.6451 79.8333 87.6451 79.8232 87.643 79.8111C87.641 79.7848 87.637 79.7586 87.6329 79.7323C87.6288 79.7061 87.6268 79.6819 87.6228 79.6556C87.6187 79.6274 87.6146 79.6011 87.6086 79.5729C87.6045 79.5547 87.6025 79.5365 87.5984 79.5184C87.5984 79.5163 87.5964 79.5123 87.5964 79.5103C87.5943 79.5042 87.5944 79.4982 87.5923 79.4901C87.5862 79.4639 87.5801 79.4356 87.5741 79.4094C87.568 79.3791 87.5599 79.3508 87.5517 79.3225C87.5436 79.2923 87.5355 79.262 87.5254 79.2337C87.5233 79.2277 87.5213 79.2216 87.5193 79.2156C87.5172 79.2115 87.5173 79.2095 87.5152 79.2055C87.5091 79.1853 87.503 79.1671 87.497 79.1489C87.4848 79.1126 87.4706 79.0783 87.4564 79.044C87.4422 79.0097 87.428 78.9753 87.4117 78.943C87.4117 78.941 87.4097 78.941 87.4097 78.939C87.4077 78.937 87.4077 78.935 87.4057 78.9329C87.3874 78.8946 87.3671 78.8542 87.3468 78.8179C87.3265 78.7815 87.3062 78.7492 87.286 78.7169C87.2799 78.7068 87.2738 78.6968 87.2677 78.6887C87.2657 78.6846 87.2616 78.6786 87.2596 78.6746C87.217 78.612 87.1723 78.5554 87.1257 78.5009C87.1135 78.4868 87.0993 78.4727 87.0851 78.4585C87.0445 78.4141 87.0019 78.3738 86.9573 78.3354C86.941 78.3213 86.9248 78.3071 86.9086 78.293C86.8497 78.2466 86.7889 78.2022 86.7239 78.1658L85.2124 77.2917C85.2773 77.3281 85.3382 77.3725 85.397 77.4189C85.4133 77.4331 85.4295 77.4472 85.4457 77.4613C85.4924 77.5017 85.535 77.5421 85.5756 77.5845Z" fill="#A0A0A0"/>
<path d="M76.2263 114.222L74.7148 113.345L74.6377 85.96L76.1492 86.834L76.2263 114.222Z" fill="#B7B7B7"/>
<path d="M74.0594 84.1998C74.0716 84.2139 74.0858 84.228 74.1 84.2421C74.1507 84.3007 74.1994 84.3633 74.244 84.4299C74.2501 84.44 74.2562 84.4501 74.2623 84.4581C74.3049 84.5268 74.3455 84.5974 74.382 84.6741C74.384 84.6762 74.384 84.6782 74.386 84.6802C74.4246 84.765 74.4611 84.8538 74.4916 84.9467C74.4936 84.9507 74.4936 84.9527 74.4956 84.9568C74.526 85.0516 74.5524 85.1505 74.5727 85.2535C74.5727 85.2555 74.5747 85.2596 74.5747 85.2616C74.595 85.3645 74.6113 85.4735 74.6234 85.5866C74.6234 85.5906 74.6234 85.5926 74.6234 85.5967C74.6336 85.7117 74.6397 85.8308 74.6397 85.956L76.1512 86.8301C76.1512 86.824 76.1512 86.82 76.1512 86.8139C76.1512 86.7877 76.1512 86.7615 76.1492 86.7352C76.1492 86.709 76.1472 86.6847 76.1472 86.6585C76.1451 86.6323 76.1451 86.608 76.1431 86.5838C76.1411 86.5576 76.139 86.5333 76.137 86.5071C76.137 86.495 76.135 86.4829 76.1329 86.4708C76.1329 86.4687 76.1329 86.4647 76.1329 86.4627C76.1309 86.4506 76.1309 86.4385 76.1289 86.4284C76.1269 86.4021 76.1228 86.3759 76.1187 86.3496C76.1147 86.3234 76.1127 86.2992 76.1086 86.2729C76.1045 86.2447 76.1005 86.2184 76.0944 86.1902C76.0903 86.172 76.0883 86.1538 76.0843 86.1357C76.0843 86.1336 76.0822 86.1296 76.0822 86.1276C76.0802 86.1215 76.0802 86.1135 76.0782 86.1074C76.0721 86.0812 76.066 86.0529 76.0599 86.0267C76.0518 85.9964 76.0457 85.9681 76.0376 85.9398C76.0295 85.9096 76.0214 85.8793 76.0112 85.851C76.0092 85.845 76.0072 85.8389 76.0051 85.8329C76.0031 85.8288 76.0031 85.8248 76.0011 85.8228C75.995 85.8046 75.9889 85.7844 75.9828 85.7662C75.9706 85.7299 75.9564 85.6956 75.9422 85.6613C75.928 85.627 75.9138 85.5926 75.8976 85.5603C75.8976 85.5583 75.8956 85.5583 75.8956 85.5563C75.8935 85.5543 75.8935 85.5523 75.8915 85.5482C75.8732 85.5099 75.853 85.4695 75.8327 85.4332C75.8124 85.3988 75.7921 85.3645 75.7718 85.3322C75.7657 85.3221 75.7596 85.312 75.7535 85.3019C75.7515 85.2979 75.7475 85.2919 75.7454 85.2878C75.7048 85.2252 75.6582 85.1687 75.6115 85.1142C75.5993 85.1001 75.5851 85.086 75.5709 85.0718C75.5304 85.0274 75.4878 84.987 75.4431 84.9487C75.4269 84.9345 75.4107 84.9204 75.3944 84.9063C75.3356 84.8599 75.2747 84.8154 75.2098 84.7791L73.6982 83.905C73.7632 83.9414 73.824 83.9858 73.8829 84.0322C73.8991 84.0463 73.9153 84.0605 73.9316 84.0746C73.9762 84.115 74.0188 84.1574 74.0594 84.1998Z" fill="#A0A0A0"/>
<path d="M51.8954 91.899L51.5181 136.952L115.729 100.398L116.955 54.5271L51.8954 91.899ZM73.0225 119.745C71.2472 120.764 69.8026 119.945 69.7986 117.914L69.7215 90.5263C69.7154 88.4975 71.1498 86.0246 72.9251 85.0052C74.7004 83.9858 76.145 84.8053 76.1491 86.8341L76.2262 114.222C76.2322 116.252 74.7978 118.725 73.0225 119.745ZM84.5386 113.129C82.7633 114.149 81.3187 113.329 81.3147 111.299L81.2376 83.9111C81.2315 81.8823 82.6659 79.4094 84.4412 78.39C86.2165 77.3705 87.6611 78.1901 87.6652 80.2189L87.7423 107.606C87.7483 109.637 86.3139 112.11 84.5386 113.129ZM96.4747 106.272C94.6994 107.291 93.2548 106.472 93.2487 104.441L93.1716 77.0536C93.1655 75.0248 94.602 72.5519 96.3753 71.5325C98.1506 70.5131 99.5952 71.3326 99.5992 73.3614L99.6763 100.749C99.6844 102.78 98.25 105.253 96.4747 106.272Z" fill="#D8D8D8"/>
<path d="M51.8954 91.8988L50.3818 91.0227L51.6256 135.341L53.0783 136.009L51.8954 91.8988Z" fill="#D8A300"/>
<path d="M115.443 53.6509L50.3818 91.0228L51.8954 91.8989L116.954 54.525L115.443 53.6509Z" fill="#E1AA00"/>
<path d="M50.6679 92.5792L51.4896 137L4.46143 110.818L4.5507 66.4978L50.6679 92.5792Z" fill="#B4B4B4"/>
<path d="M50.668 92.5794L52.0801 91.134L55.1133 134.794L51.4897 137.001L50.668 92.5794Z" fill="#D8D8D8"/>
<path d="M4.55127 66.4978L6.23121 65.5269L52.3484 91.6062L50.6684 92.5792L4.55127 66.4978Z" fill="#DEA800"/>
<path d="M54.7828 85.7375C54.7828 85.7294 54.7808 85.7213 54.7808 85.7112C54.7808 85.7052 54.7808 85.7011 54.7787 85.6951C54.7767 85.6789 54.7767 85.6628 54.7747 85.6446C54.7706 85.6143 54.7686 85.584 54.7645 85.5538C54.7605 85.5275 54.7564 85.5013 54.7524 85.473C54.7524 85.471 54.7524 85.469 54.7524 85.467C54.7524 85.4649 54.7524 85.4649 54.7524 85.4629C54.7483 85.4387 54.7443 85.4165 54.7402 85.3923C54.7361 85.368 54.7301 85.3418 54.726 85.3176C54.7219 85.2934 54.7159 85.2691 54.7098 85.2449C54.7077 85.2388 54.7077 85.2348 54.7057 85.2288C54.7057 85.2267 54.7037 85.2227 54.7037 85.2207C54.6996 85.2045 54.6956 85.1884 54.6915 85.1722C54.6854 85.15 54.6793 85.1258 54.6732 85.1036C54.6672 85.0814 54.6611 85.0572 54.655 85.035C54.6509 85.0188 54.6448 85.0027 54.6408 84.9885C54.6408 84.9865 54.6388 84.9845 54.6388 84.9805C54.6367 84.9764 54.6367 84.9724 54.6347 84.9663C54.6286 84.9441 54.6205 84.9219 54.6144 84.8997C54.6063 84.8775 54.6002 84.8553 54.5921 84.8331C54.584 84.8109 54.5779 84.7887 54.5698 84.7685C54.5677 84.7604 54.5637 84.7523 54.5617 84.7443C54.5596 84.7422 54.5596 84.7382 54.5576 84.7362C54.5535 84.7261 54.5495 84.714 54.5454 84.7039C54.5373 84.6817 54.5292 84.6615 54.5211 84.6393C54.513 84.6171 54.5028 84.5969 54.4947 84.5747C54.4866 84.5525 54.4764 84.5323 54.4663 84.5101C54.4663 84.5081 54.4643 84.5061 54.4643 84.504C54.4643 84.502 54.4622 84.502 54.4622 84.5C54.4541 84.4818 54.446 84.4637 54.4379 84.4475C54.4277 84.4253 54.4176 84.4051 54.4075 84.3829C54.3973 84.3607 54.3872 84.3385 54.375 84.3183C54.3669 84.3042 54.3608 84.288 54.3527 84.2739C54.3507 84.2719 54.3506 84.2699 54.3486 84.2679C54.3466 84.2638 54.3446 84.2598 54.3425 84.2557C54.3304 84.2335 54.3202 84.2113 54.308 84.1891C54.2959 84.1669 54.2837 84.1447 54.2715 84.1225C54.2593 84.1003 54.2472 84.0781 54.233 84.0559C54.2309 84.0519 54.2289 84.0478 54.2269 84.0458C54.2249 84.0438 54.2249 84.0418 54.2228 84.0397C54.2127 84.0216 54.2025 84.0054 54.1924 83.9873C54.1782 83.963 54.164 83.9408 54.1498 83.9166C54.1356 83.8924 54.1194 83.8682 54.1052 83.846C54.1011 83.8399 54.097 83.8338 54.093 83.8278C54.0909 83.8237 54.0869 83.8197 54.0849 83.8157C54.0747 83.7995 54.0646 83.7854 54.0544 83.7692C54.0382 83.745 54.0199 83.7188 54.0017 83.6946C53.9814 83.6663 53.9611 83.638 53.9408 83.6098C53.9408 83.6098 53.9408 83.6098 53.9408 83.6077C53.9205 83.5795 53.9002 83.5532 53.8779 83.525C53.8515 83.4907 53.8231 83.4563 53.7968 83.424C53.7927 83.42 53.7907 83.416 53.7866 83.4119C53.7805 83.4039 53.7744 83.3978 53.7684 83.3897C53.746 83.3615 53.7217 83.3352 53.6994 83.309C53.6831 83.2888 53.6649 83.2726 53.6466 83.2525C53.6263 83.2303 53.6081 83.2101 53.5878 83.1899C53.5776 83.1778 53.5675 83.1657 53.5553 83.1556C53.5411 83.1414 53.5249 83.1273 53.5107 83.1132C53.466 83.0708 53.4214 83.0284 53.3768 82.988C53.3504 82.9658 53.3261 82.9436 53.2997 82.9214C53.2875 82.9113 53.2733 82.9012 53.2611 82.8911L48.1787 85.7718C48.2051 85.794 48.2335 85.8142 48.2599 85.8364C48.2862 85.8586 48.3106 85.8808 48.337 85.903C48.3816 85.9434 48.4262 85.9858 48.4709 86.0281C48.4972 86.0544 48.5236 86.0786 48.548 86.1049C48.5683 86.125 48.5886 86.1473 48.6068 86.1674C48.6474 86.2118 48.688 86.2583 48.7285 86.3047C48.7346 86.3128 48.7407 86.3188 48.7468 86.3269C48.7996 86.3895 48.8503 86.4561 48.901 86.5227C48.901 86.5227 48.901 86.5227 48.903 86.5247C48.9538 86.5914 49.0004 86.662 49.0471 86.7307C49.0491 86.7347 49.0532 86.7387 49.0552 86.7428C49.0998 86.8134 49.1445 86.8841 49.1871 86.9547C49.1891 86.9567 49.1891 86.9588 49.1911 86.9628C49.2337 87.0355 49.2743 87.1102 49.3129 87.1869C49.3149 87.1889 49.3149 87.1929 49.3169 87.1949C49.3555 87.2696 49.392 87.3464 49.4245 87.4231C49.4245 87.4251 49.4265 87.4251 49.4265 87.4271C49.461 87.5038 49.4914 87.5825 49.5198 87.6592C49.5218 87.6613 49.5218 87.6653 49.5239 87.6673C49.5523 87.744 49.5787 87.8228 49.603 87.9015C49.603 87.9035 49.605 87.9055 49.605 87.9096C49.6274 87.9863 49.6497 88.065 49.6679 88.1417C49.6679 88.1437 49.67 88.1478 49.67 88.1498C49.6882 88.2285 49.7024 88.3052 49.7166 88.3839C49.7166 88.386 49.7166 88.386 49.7166 88.388C49.7288 88.4647 49.7369 88.5394 49.745 88.6141C49.745 88.6201 49.7471 88.6242 49.7471 88.6302C49.7491 88.6666 49.7491 88.7049 49.7511 88.7413L49.7146 88.7635L49.7044 92.6353C49.7044 92.706 49.7004 92.7726 49.6943 92.8372C49.6923 92.8654 49.6882 92.8917 49.6842 92.9179C49.6801 92.9583 49.674 92.9987 49.6659 93.037C49.6618 93.0633 49.6558 93.0895 49.6497 93.1157C49.6416 93.1521 49.6334 93.1864 49.6233 93.2207C49.6152 93.2449 49.6071 93.2692 49.5989 93.2934C49.5868 93.3257 49.5746 93.356 49.5624 93.3862C49.5523 93.4085 49.5421 93.4307 49.532 93.4508C49.5178 93.4791 49.5016 93.5074 49.4853 93.5356C49.4732 93.5538 49.463 93.574 49.4508 93.5922C49.4326 93.6184 49.4143 93.6426 49.394 93.6668C49.3819 93.683 49.3697 93.6991 49.3555 93.7133C49.3332 93.7375 49.3088 93.7597 49.2824 93.7819C49.2703 93.792 49.2581 93.8041 49.2459 93.8162C49.2074 93.8465 49.1668 93.8748 49.1242 93.899L54.2573 90.9315C54.2999 90.9073 54.3405 90.879 54.3791 90.8488C54.3912 90.8387 54.4034 90.8266 54.4156 90.8144C54.4399 90.7922 54.4643 90.77 54.4886 90.7458C54.5028 90.7317 54.515 90.7155 54.5272 90.6994C54.5475 90.6752 54.5657 90.6509 54.584 90.6247C54.5961 90.6065 54.6083 90.5863 54.6185 90.5682C54.6347 90.5419 54.6509 90.5137 54.6651 90.4834C54.6753 90.4632 54.6854 90.441 54.6956 90.4188C54.7077 90.3885 54.7199 90.3582 54.7321 90.3259C54.7402 90.3017 54.7483 90.2775 54.7564 90.2533C54.7666 90.2189 54.7747 90.1846 54.7828 90.1483C54.7889 90.122 54.795 90.0978 54.799 90.0716C54.8072 90.0332 54.8112 89.9928 54.8173 89.9525C54.8214 89.9262 54.8254 89.9 54.8274 89.8717C54.8274 89.8636 54.8295 89.8556 54.8295 89.8475C54.8335 89.799 54.8356 89.7486 54.8356 89.6981C54.8356 89.688 54.8356 89.6799 54.8356 89.6699L54.8457 85.8L54.7909 85.8323C54.7869 85.794 54.7848 85.7657 54.7828 85.7375Z" fill="#B68A00"/>
<path d="M48.1158 85.7578C48.1117 85.7638 48.1057 85.7678 48.1016 85.7739C48.0894 85.786 48.0793 85.7981 48.0671 85.8102C48.0468 85.8324 48.0265 85.8547 48.0062 85.8769C47.9941 85.889 47.9839 85.9031 47.9738 85.9172C47.9555 85.9394 47.9373 85.9616 47.917 85.9838C47.9048 85.998 47.8926 86.0121 47.8804 86.0283C47.8723 86.0404 47.8642 86.0525 47.8541 86.0626C47.8115 86.1171 47.7729 86.1716 47.7323 86.2281C47.7242 86.2422 47.712 86.2544 47.7039 86.2665C47.6999 86.2705 47.6978 86.2766 47.6958 86.2806C47.641 86.3634 47.5883 86.4481 47.5396 86.535C47.5274 86.5551 47.5173 86.5753 47.5071 86.5955C47.4645 86.6722 47.426 86.751 47.3895 86.8317C47.3854 86.8418 47.3793 86.8519 47.3732 86.862C47.3712 86.866 47.3692 86.8701 47.3692 86.8741C47.3326 86.9548 47.3002 87.0356 47.2697 87.1184C47.2677 87.1244 47.2657 87.1284 47.2637 87.1345C47.2495 87.1749 47.2373 87.2152 47.2231 87.2556C47.217 87.2738 47.2109 87.2899 47.2068 87.3081C47.2068 87.3101 47.2048 87.3142 47.2048 87.3162C47.1906 87.3667 47.1764 87.4171 47.1642 87.4696C47.1622 87.4777 47.1602 87.4858 47.1582 87.4938C47.1561 87.5059 47.1521 87.5201 47.15 87.5322C47.144 87.5544 47.1399 87.5786 47.1338 87.6008C47.1277 87.6351 47.1216 87.6695 47.1155 87.7038C47.1155 87.7078 47.1135 87.7118 47.1135 87.7159C47.1135 87.7179 47.1135 87.7199 47.1135 87.7219C47.1074 87.7603 47.1013 87.7986 47.0973 87.837C47.0953 87.8592 47.0932 87.8814 47.0912 87.9036C47.0912 87.9117 47.0892 87.9198 47.0892 87.9278C47.0892 87.9339 47.0871 87.94 47.0871 87.946C47.0851 87.9803 47.0831 88.0147 47.0811 88.049C47.0811 88.0712 47.0811 88.0954 47.0811 88.1176L52.1209 91.0326C52.1209 90.97 52.1229 90.9054 52.129 90.8408C52.129 90.8327 52.131 90.8247 52.131 90.8166C52.1371 90.756 52.1432 90.6934 52.1533 90.6309C52.1533 90.6268 52.1554 90.6228 52.1554 90.6188C52.1655 90.5622 52.1757 90.5037 52.1899 90.4472C52.1919 90.4351 52.1959 90.4209 52.198 90.4088C52.2122 90.3462 52.2284 90.2857 52.2467 90.2231C52.2528 90.2049 52.2588 90.1868 52.2649 90.1686C52.2791 90.1222 52.2933 90.0778 52.3116 90.0333C52.342 89.9506 52.3745 89.8698 52.411 89.7891C52.4171 89.7749 52.4252 89.7608 52.4313 89.7467C52.4678 89.668 52.5084 89.5892 52.549 89.5105C52.5591 89.4903 52.5713 89.4701 52.5814 89.4499C52.6301 89.3631 52.6829 89.2784 52.7377 89.1956C52.7498 89.1774 52.762 89.1613 52.7742 89.1431C52.8127 89.0866 52.8533 89.0301 52.8959 88.9755C52.9162 88.9493 52.9365 88.9231 52.9588 88.8968C52.9771 88.8746 52.9953 88.8524 53.0156 88.8302C53.0461 88.7939 53.0785 88.7595 53.109 88.7252C53.1211 88.7131 53.1313 88.701 53.1434 88.6889C53.1637 88.6667 53.186 88.6465 53.2063 88.6263L48.1462 85.7295C48.1361 85.7376 48.1259 85.7477 48.1158 85.7578Z" fill="#CA9900"/>
<path d="M74.5566 25.2942C74.5546 24.2424 73.8059 23.8205 72.8868 24.3474L6.94719 62.228C6.02809 62.7569 5.28551 64.0347 5.28957 65.0865L5.30174 69.5215C5.30377 70.5733 6.05244 70.9952 6.97154 70.4683L72.9132 32.5897C73.8303 32.0628 74.5749 30.783 74.5708 29.7312L74.5566 25.2942Z" fill="#D8D8D8"/>
<path d="M109.423 50.35L64.9677 24.8136C63.8944 24.1979 63.022 24.6925 63.0199 25.9178L63.0098 29.719C63.0057 30.9464 63.8721 32.4382 64.9454 33.0559L109.401 58.5943C110.472 59.21 111.345 58.7154 111.349 57.488L111.359 53.6869C111.363 52.4595 110.496 50.9637 109.423 50.35Z" fill="#D8D8D8"/>
<path d="M69.0317 21.3194C68.9851 21.2931 68.9364 21.2729 68.8857 21.2548C68.8715 21.2507 68.8552 21.2467 68.841 21.2427C68.8004 21.2326 68.7599 21.2245 68.7173 21.2184C68.7071 21.2164 68.697 21.2144 68.6868 21.2124C68.6807 21.2124 68.6726 21.2124 68.6665 21.2124C68.6422 21.2104 68.6178 21.2104 68.5935 21.2104C68.5752 21.2104 68.559 21.2084 68.5407 21.2104C68.5326 21.2104 68.5245 21.2124 68.5164 21.2124C68.5022 21.2144 68.486 21.2144 68.4718 21.2164C68.4555 21.2184 68.4393 21.2184 68.421 21.2225C68.4028 21.2245 68.3845 21.2306 68.3663 21.2326C68.3561 21.2346 68.346 21.2366 68.3338 21.2386C68.3277 21.2406 68.3216 21.2407 68.3155 21.2427C68.2831 21.2507 68.2506 21.2588 68.2161 21.2709C68.208 21.2729 68.2019 21.277 68.1938 21.279C68.1857 21.281 68.1776 21.2851 68.1694 21.2871C68.1532 21.2931 68.137 21.2972 68.1228 21.3032C68.0924 21.3153 68.0639 21.3275 68.0335 21.3396C68.0295 21.3416 68.0274 21.3436 68.0234 21.3436C68.0193 21.3456 68.0132 21.3476 68.0092 21.3497C67.9889 21.3598 67.9666 21.3698 67.9442 21.3799C67.9158 21.3941 67.8854 21.4102 67.857 21.4264C67.8529 21.4284 67.8509 21.4304 67.8469 21.4324C67.6967 21.5192 67.5486 21.604 67.3985 21.6908C66.9704 21.9371 66.5423 22.1814 66.1142 22.4276C65.4385 22.8152 64.7629 23.2048 64.0873 23.5924C63.1925 24.1052 62.2998 24.6199 61.4051 25.1327C60.3236 25.7544 59.2422 26.3762 58.1608 26.9959C56.9212 27.7085 55.6835 28.4191 54.4439 29.1317C53.0784 29.917 51.7109 30.7002 50.3455 31.4855C48.8826 32.3252 47.4198 33.167 45.9569 34.0068C44.4271 34.8849 42.8973 35.7651 41.3675 36.6432C39.8012 37.5435 38.2349 38.4419 36.6686 39.3422C35.0962 40.2445 33.5237 41.1489 31.9513 42.0533C30.4033 42.9435 28.8532 43.8317 27.3051 44.722C25.8098 45.5799 24.3165 46.4399 22.8212 47.2978C21.4111 48.1073 20.001 48.9188 18.591 49.7283C17.2945 50.4732 16 51.2161 14.7036 51.961C13.5532 52.6211 12.4028 53.2832 11.2524 53.9433C10.2765 54.5045 9.30056 55.0637 8.32466 55.6249C7.55367 56.067 6.78471 56.5091 6.01373 56.9532C4.21814 57.9847 2.37386 58.9396 0.714208 60.1791C0.535664 60.3305 0.555953 60.4657 0.708122 60.5888C0.695948 60.609 0.685804 60.6292 0.675659 60.6494C0.633052 60.7281 0.594503 60.8069 0.557982 60.8856C0.553924 60.8957 0.547838 60.9058 0.541751 60.9159C0.539722 60.9199 0.537693 60.9239 0.537693 60.928C0.501173 61.0087 0.46871 61.0915 0.438276 61.1722C0.436247 61.1783 0.434219 61.1823 0.43219 61.1884C0.417987 61.2288 0.405814 61.2691 0.39364 61.3075C0.387554 61.3257 0.381467 61.3438 0.37538 61.362C0.37538 61.364 0.373351 61.3681 0.373351 61.3701C0.359149 61.4205 0.344946 61.471 0.332773 61.5235C0.330744 61.5316 0.328715 61.5396 0.326686 61.5497C0.324657 61.5619 0.320599 61.574 0.318571 61.5861C0.312484 61.6083 0.308426 61.6325 0.302339 61.6547C0.296252 61.689 0.290166 61.7233 0.284079 61.7597C0.284079 61.7637 0.28205 61.7678 0.280021 61.7758C0.273934 61.8142 0.269877 61.8525 0.26379 61.8909C0.261761 61.9131 0.259732 61.9353 0.257703 61.9575C0.257703 61.9656 0.255674 61.9737 0.255674 61.9817C0.255674 61.9878 0.253645 61.9939 0.253645 61.9999C0.251616 62.0342 0.249588 62.0685 0.247559 62.1029C0.247559 62.1251 0.247559 62.1493 0.247559 62.1715L5.28738 65.0865C5.28738 65.0239 5.28941 64.9593 5.29549 64.8947C5.29549 64.8866 5.29752 64.8786 5.29752 64.8705C5.30361 64.8099 5.30969 64.7473 5.31984 64.6848C5.31984 64.6807 5.32187 64.6767 5.32187 64.6726C5.33201 64.6161 5.34216 64.5576 5.35636 64.499C5.35839 64.4869 5.36245 64.4748 5.36448 64.4607C5.37868 64.3981 5.39491 64.3375 5.41317 64.275C5.41926 64.2568 5.42534 64.2406 5.4294 64.2225C5.4436 64.176 5.45983 64.1296 5.47607 64.0852C5.5065 64.0024 5.53896 63.9217 5.57548 63.8409C5.58157 63.8268 5.58968 63.8127 5.59577 63.7986C5.63229 63.7198 5.67287 63.6411 5.71345 63.5624C5.72359 63.5422 5.73577 63.522 5.74591 63.5018C5.7946 63.415 5.84736 63.3302 5.90214 63.2475C5.91431 63.2293 5.92648 63.2131 5.93866 63.195C5.97721 63.1384 6.01779 63.0819 6.06039 63.0294C6.08068 63.0032 6.10097 62.9769 6.12329 62.9507C6.14155 62.9285 6.15981 62.9063 6.1801 62.8841C6.21053 62.8478 6.24299 62.8114 6.27546 62.7771C6.28763 62.765 6.29777 62.7529 6.30995 62.7408C6.34038 62.7085 4.43118 65.357 4.46161 65.3267L46.0279 88.0349C46.0807 88.0652 47.0282 89.6922 47.0809 89.7265C47.1012 89.7407 46.8638 85.9031 46.8841 85.9173C46.9105 85.9354 49.6779 90.0939 49.7043 90.1141C49.7246 90.1303 52.0538 88.8847 52.0538 88.8847C52.0781 88.8605 52.1005 88.8383 52.1248 88.8161C52.1329 88.808 52.141 88.802 52.1492 88.7939C52.1958 88.7515 52.2425 88.7091 52.2912 88.6708C52.2932 88.6687 52.2952 88.6687 52.2973 88.6667C52.348 88.6264 52.4007 88.586 52.4535 88.5496C52.4555 88.5476 52.4576 88.5456 52.4616 88.5436C52.5164 88.5052 52.5732 88.4689 52.63 88.4366L111.359 54.7003L111.351 57.4881C111.351 57.5568 111.347 57.6234 111.341 57.686C111.339 57.7122 111.335 57.7385 111.33 57.7647C111.326 57.8051 111.32 57.8434 111.314 57.8818C111.31 57.908 111.304 57.9323 111.298 57.9585C111.29 57.9928 111.282 58.0271 111.272 58.0615C111.264 58.0857 111.257 58.1099 111.247 58.1321C111.235 58.1644 111.225 58.1947 111.211 58.2229C111.201 58.2452 111.193 58.2653 111.182 58.2875C111.168 58.3158 111.152 58.3441 111.138 58.3703C111.126 58.3885 111.115 58.4087 111.103 58.4268C111.085 58.4531 111.067 58.4773 111.046 58.5015C111.034 58.5177 111.022 58.5318 111.01 58.548C110.988 58.5722 110.963 58.5944 110.939 58.6166C110.927 58.6267 110.917 58.6388 110.904 58.6489C110.866 58.6792 110.827 58.7074 110.787 58.7317L115.827 55.8167C115.867 55.7924 115.908 55.7642 115.944 55.7339C115.956 55.7238 115.969 55.7117 115.979 55.7016C116.003 55.6794 116.027 55.6572 116.05 55.633C116.062 55.6188 116.074 55.6027 116.086 55.5865C116.107 55.5623 116.125 55.5381 116.143 55.5119C116.155 55.4937 116.165 55.4755 116.178 55.4553C116.194 55.4291 116.208 55.4008 116.222 55.3726C116.232 55.3524 116.242 55.3302 116.251 55.308C116.263 55.2777 116.275 55.2474 116.287 55.2171C116.295 55.1929 116.303 55.1707 116.311 55.1465C116.322 55.1142 116.33 55.0799 116.338 55.0435C116.344 55.0173 116.35 54.9931 116.354 54.9668C116.36 54.9285 116.366 54.8901 116.37 54.8497C116.374 54.8235 116.376 54.7972 116.38 54.771C116.38 54.7629 116.382 54.7548 116.382 54.7468C116.387 54.6983 116.389 54.6499 116.389 54.5994C116.389 54.5913 116.389 54.5812 116.389 54.5711L116.397 51.8035L118.57 50.556C118.624 50.5257 118.677 50.4974 118.73 50.4732C118.734 50.4712 118.74 50.4692 118.744 50.4672C118.793 50.445 118.844 50.4248 118.89 50.4086C118.898 50.4066 118.906 50.4026 118.915 50.4005C118.961 50.3844 119.008 50.3723 119.053 50.3622C119.063 50.3602 119.075 50.3582 119.085 50.3561C119.119 50.3481 119.156 50.344 119.191 50.34C119.205 50.338 119.221 50.3359 119.235 50.3359C119.262 50.3339 119.286 50.3339 119.31 50.3339C119.335 50.3339 119.359 50.3339 119.383 50.3359C119.399 50.338 119.416 50.34 119.432 50.342C119.475 50.3481 119.515 50.3561 119.556 50.3662C119.572 50.3703 119.586 50.3743 119.6 50.3783C119.651 50.3965 119.702 50.4167 119.746 50.4429L69.0317 21.3194ZM51.9463 83.0144C51.9382 83.0104 51.9321 83.0043 51.924 83.0003C51.9037 82.9861 11.368 59.6885 11.368 59.6885L68.5245 26.8546L109.117 50.1724L51.9463 83.0144Z" fill="white"/>
<path d="M119.988 51.5007C119.986 50.449 119.237 50.0271 118.318 50.5539L52.3784 88.4325C52.2019 88.5335 52.0335 88.6627 51.8752 88.812L45.3239 85.1461L1.95993 60.2356C0.886635 59.6199 0.0142024 60.1144 0.0121735 61.3398L0.00811565 62.1755L0 62.1694L0.00405782 63.6552L0 65.141C0 65.2156 0.00202891 65.2903 0.00811565 65.367L0.0121735 66.6045C0.0121735 66.6146 0.0121735 66.6267 0.0121735 66.6368C0.0121735 66.6691 0.0142024 66.7014 0.0162313 66.7337C0.0162313 66.7498 0.0182602 66.764 0.0202891 66.7781C0.0202891 66.7862 0.022318 66.7943 0.022318 66.8023C0.022318 66.8104 0.0243469 66.8205 0.0243469 66.8286C0.0284048 66.8609 0.0324626 66.8912 0.0365204 66.9214C0.0385493 66.9335 0.0405782 66.9436 0.0426072 66.9537C0.0446361 66.9618 0.046665 66.9699 0.046665 66.978C0.0486939 66.988 0.0507228 67.0002 0.0527517 67.0123C0.0608674 67.0446 0.068983 67.0749 0.0770987 67.1031C0.0791276 67.1071 0.0811565 67.1112 0.0811565 67.1172C0.0831854 67.1253 0.0872432 67.1314 0.0892721 67.1394C0.0953589 67.1576 0.101446 67.1778 0.109561 67.196C0.115648 67.2141 0.125793 67.2303 0.131879 67.2485C0.135937 67.2586 0.139995 67.2666 0.144053 67.2767C0.146082 67.2808 0.148111 67.2868 0.150139 67.2908C0.1684 67.3252 0.18666 67.3595 0.206949 67.3918C0.233325 67.4322 0.26173 67.4685 0.292163 67.5028C0.310424 67.523 0.330713 67.5391 0.348973 67.5573C0.361146 67.5694 0.37332 67.5815 0.385493 67.5937C0.419985 67.6219 0.454476 67.6461 0.490997 67.6663L5.53081 70.5813C5.49429 70.5591 5.45777 70.5349 5.42531 70.5086C5.41314 70.4985 5.40096 70.4844 5.38879 70.4723C5.38676 70.4703 5.38676 70.4703 5.38473 70.4683L40.9069 90.8025C40.9576 90.8509 41.0124 90.8973 41.0814 90.9337L42.1831 91.5332L49.6617 95.6029C51.0819 96.376 52.8004 96.3639 54.2105 95.5706L55.3142 94.9488C55.4481 94.8984 55.5719 94.8459 55.6733 94.7873C56.984 94.0344 58.2947 93.2814 59.6054 92.5284C63.2939 90.4088 66.9825 88.2912 70.6711 86.1716C75.1651 83.5897 79.6591 81.0078 84.1532 78.4259C88.7121 75.8077 93.2691 73.1894 97.8281 70.5712C101.709 68.3406 105.591 66.1119 109.472 63.8813C111.935 62.4662 114.398 61.0511 116.863 59.636C117.354 59.3534 117.843 59.0728 118.334 58.7902C119.251 58.2633 119.996 56.9835 119.992 55.9317L119.988 51.5007Z" fill="#EDEDED"/>
<path d="M33.4505 6.41357L25.2597 11.1494L25.2212 25.1934L33.4018 23.0374L33.4505 6.41357Z" fill="#424245"/>
<path d="M33.4625 6.16528C33.4706 6.09059 33.4808 6.01994 33.495 5.9513C33.499 5.93111 33.5051 5.91093 33.5092 5.89074C33.5193 5.84431 33.5315 5.79788 33.5437 5.75549C33.5518 5.73126 33.5599 5.70906 33.568 5.68685C33.5822 5.6485 33.5944 5.61216 33.6106 5.57784C33.6208 5.55564 33.6309 5.53343 33.6431 5.51123C33.6593 5.47893 33.6776 5.44663 33.6958 5.41635C33.708 5.39616 33.7202 5.37598 33.7344 5.35781C33.7547 5.32955 33.775 5.30128 33.7973 5.27504C33.8115 5.25889 33.8237 5.24072 33.8379 5.22659C33.8622 5.19833 33.8906 5.17411 33.917 5.14988C33.9292 5.13777 33.9434 5.12566 33.9555 5.11355C33.9981 5.07923 34.0407 5.04895 34.0874 5.02271L25.8987 9.75854C25.8521 9.78478 25.8095 9.81506 25.7668 9.84938C25.7526 9.85947 25.7405 9.8736 25.7283 9.88572C25.7019 9.90994 25.6735 9.93416 25.6492 9.96243C25.635 9.97857 25.6208 9.99472 25.6086 10.0109C25.5863 10.0371 25.566 10.0654 25.5457 10.0936C25.5335 10.1118 25.5193 10.132 25.5071 10.1522C25.4889 10.1825 25.4706 10.2148 25.4544 10.2471C25.4442 10.2693 25.4321 10.2895 25.4219 10.3137C25.4057 10.348 25.3915 10.3863 25.3793 10.4227C25.3712 10.4449 25.3631 10.4671 25.355 10.4913C25.3408 10.5357 25.3306 10.5801 25.3205 10.6266C25.3164 10.6468 25.3103 10.6669 25.3063 10.6871C25.2921 10.7558 25.2819 10.8244 25.2758 10.8991V10.9011C25.2758 10.9052 25.2758 10.9092 25.2758 10.9132C25.2718 10.9657 25.2677 11.0202 25.2657 11.0747C25.2657 11.0989 25.2637 11.1252 25.2637 11.1494L33.4524 6.41358C33.4524 6.33081 33.4564 6.25208 33.4645 6.17537C33.4605 6.17336 33.4605 6.16932 33.4625 6.16528Z" fill="#3F3F42"/>
<path d="M26.0572 4.78832C26.0633 4.7863 26.0674 4.7863 26.0735 4.78428C26.1932 4.76006 26.3169 4.74391 26.4448 4.73785C26.5726 4.7318 26.7045 4.73381 26.8384 4.74593C26.8445 4.74593 26.8505 4.74794 26.8566 4.74794C26.9865 4.76006 27.1204 4.78024 27.2584 4.80851C27.2644 4.81052 27.2726 4.81052 27.2786 4.81254C27.4146 4.84282 27.5546 4.88118 27.6946 4.92761C27.7027 4.92963 27.7108 4.93366 27.7209 4.93568C27.863 4.98413 28.007 5.04065 28.1531 5.10727C28.1632 5.11131 28.1754 5.11736 28.1856 5.12342C28.3337 5.19206 28.4838 5.26877 28.636 5.35557L36.8247 0.623773C36.7922 0.605605 36.7598 0.587437 36.7273 0.569269C36.6502 0.526877 36.5751 0.486503 36.498 0.450167C36.4554 0.42998 36.4148 0.411812 36.3743 0.391625C36.3641 0.385569 36.3519 0.381531 36.3418 0.375475C36.3296 0.369419 36.3174 0.363363 36.3053 0.357307C36.2424 0.329045 36.1815 0.304821 36.1206 0.280597C36.0659 0.258392 36.0111 0.238205 35.9563 0.218018C35.9421 0.211962 35.9259 0.207924 35.9117 0.203887C35.9036 0.201868 35.8934 0.197831 35.8853 0.195812C35.8569 0.185719 35.8265 0.175626 35.798 0.167551C35.7473 0.151401 35.6986 0.137271 35.6499 0.125158C35.6033 0.113046 35.5566 0.100934 35.5099 0.0908408C35.4957 0.0868034 35.4836 0.0847847 35.4694 0.082766C35.4633 0.0807474 35.4552 0.0807474 35.4491 0.0787287C35.4227 0.0726726 35.3984 0.0666166 35.374 0.0625792C35.3314 0.0545045 35.2868 0.0464297 35.2442 0.0403737C35.2015 0.0343176 35.1589 0.0282616 35.1163 0.0242242C35.094 0.0222055 35.0717 0.0201868 35.0473 0.0181682C35.0413 0.0181682 35.0352 0.0161495 35.0291 0.0161495C35.0169 0.0141308 35.0047 0.0141308 34.9905 0.0121121C34.95 0.0100934 34.9094 0.00807474 34.8708 0.00605605C34.8303 0 34.7897 0 34.7511 0C34.7126 0 34.674 0.00201868 34.6355 0.00403737C34.5969 0.00605605 34.5604 0.00807474 34.5219 0.0121121C34.4833 0.0161495 34.4468 0.0201868 34.4103 0.0242242C34.3717 0.0302803 34.3352 0.0363363 34.2987 0.0423924C34.2865 0.044411 34.2764 0.0464297 34.2642 0.0484484C34.2581 0.0504671 34.254 0.0504671 34.248 0.0524858C34.2277 0.0565232 34.2074 0.0605605 34.1871 0.0645979C34.1506 0.0726726 34.114 0.082766 34.0775 0.0928595C34.041 0.102953 34.0045 0.115065 33.968 0.127177C33.9477 0.133233 33.9294 0.141308 33.9112 0.147364C33.9051 0.149383 33.901 0.151401 33.8949 0.15342C33.8848 0.157457 33.8726 0.161495 33.8604 0.165532C33.8239 0.179663 33.7874 0.195812 33.7509 0.21398C33.7144 0.23013 33.6778 0.248298 33.6433 0.268485C33.621 0.280597 33.5987 0.292709 33.5764 0.30684L25.3877 5.04267C25.4891 4.98413 25.5967 4.93366 25.7062 4.89127C25.7123 4.88925 25.7164 4.88723 25.7225 4.88522C25.828 4.84484 25.9416 4.81254 26.0572 4.78832Z" fill="#4D4D51"/>
<path d="M81.197 78.6237C81.197 78.6621 81.1929 78.6944 81.1868 78.7287C81.1848 78.7448 81.1807 78.761 81.1787 78.7751C81.1726 78.7973 81.1665 78.8195 81.1584 78.8397C81.1543 78.8518 81.1483 78.8659 81.1442 78.876C81.1341 78.8962 81.1219 78.9144 81.1097 78.9305C81.1036 78.9386 81.0975 78.9487 81.0914 78.9548C81.0712 78.977 81.0468 78.9972 81.0225 79.0113L89.2112 74.2755C89.2375 74.2613 89.2599 74.2411 89.2801 74.2189C89.2862 74.2109 89.2923 74.2028 89.2984 74.1947C89.3106 74.1786 89.3228 74.1604 89.3349 74.1402C89.341 74.1281 89.3451 74.116 89.3491 74.1039C89.3572 74.0837 89.3633 74.0635 89.3694 74.0393C89.3735 74.0251 89.3755 74.009 89.3775 73.9928C89.3796 73.9807 89.3836 73.9706 89.3836 73.9585C89.3856 73.9424 89.3857 73.9262 89.3877 73.9101C89.3877 73.904 89.3877 73.8959 89.3877 73.8899L81.197 78.6237Z" fill="#3E3E41"/>
<path d="M81.3043 40.844L89.493 36.1082L89.3854 73.8878L81.1968 78.6237L81.3043 40.844Z" fill="#424245"/>
<path d="M36.8249 0.623779L28.6362 5.35759L76.7519 32.9974L84.9405 28.2616L36.8249 0.623779Z" fill="#515155"/>
<path d="M77.6524 33.6191C77.6828 33.6434 77.7112 33.6676 77.7396 33.6918C77.8451 33.7786 77.9506 33.8694 78.0521 33.9643C78.0947 34.0027 78.1373 34.0431 78.1799 34.0834C78.2712 34.1702 78.3605 34.2591 78.4497 34.3519C78.4883 34.3923 78.5289 34.4327 78.5674 34.4751C78.677 34.5942 78.7865 34.7153 78.892 34.8404C78.9042 34.8546 78.9184 34.8687 78.9306 34.8848C79.0503 35.0282 79.1659 35.1755 79.2775 35.3269C79.2897 35.3431 79.3019 35.3592 79.3141 35.3754C79.4297 35.5308 79.5413 35.6923 79.6488 35.8538C79.6509 35.8558 79.6509 35.8579 79.6529 35.8599C79.7604 36.0254 79.8659 36.193 79.9653 36.3645C79.9714 36.3746 79.9775 36.3847 79.9836 36.3948C80.081 36.5624 80.1743 36.734 80.2616 36.9076C80.2656 36.9156 80.2697 36.9257 80.2758 36.9338C80.365 37.1094 80.4502 37.2871 80.5294 37.4667C80.5314 37.4708 80.5334 37.4748 80.5355 37.4789C80.6146 37.6605 80.6897 37.8442 80.7586 38.0279C80.7607 38.034 80.7627 38.04 80.7647 38.0461C80.8317 38.2258 80.8925 38.4074 80.9473 38.5891C80.9494 38.5972 80.9514 38.6053 80.9554 38.6134C81.0102 38.795 81.0589 38.9767 81.1015 39.1584C81.1036 39.1645 81.1056 39.1705 81.1056 39.1766C81.1482 39.3583 81.1827 39.5399 81.2131 39.7196C81.2151 39.7277 81.2151 39.7357 81.2172 39.7438C81.2456 39.9215 81.2659 40.0971 81.2821 40.2707C81.2841 40.2868 81.2841 40.301 81.2862 40.3171C81.3004 40.4928 81.3085 40.6684 81.3064 40.84L89.4951 36.1041C89.4951 36.0557 89.4951 36.0093 89.4931 35.9608C89.4911 35.872 89.487 35.7832 89.483 35.6923C89.4809 35.656 89.4769 35.6176 89.4748 35.5793C89.4728 35.5631 89.4728 35.549 89.4708 35.5328C89.4688 35.5086 89.4667 35.4864 89.4647 35.4622C89.4586 35.3875 89.4485 35.3128 89.4403 35.2361C89.4322 35.1695 89.4221 35.1029 89.4119 35.0362C89.4099 35.0262 89.4079 35.0161 89.4059 35.006C89.4038 34.9979 89.4038 34.9898 89.4018 34.9817C89.3937 34.9333 89.3856 34.8848 89.3775 34.8384C89.3653 34.7758 89.3531 34.7133 89.3409 34.6507C89.3288 34.5901 89.3146 34.5275 89.3004 34.467C89.2983 34.4589 89.2963 34.4488 89.2943 34.4407C89.2922 34.4347 89.2922 34.4286 89.2902 34.4226C89.2801 34.3782 89.2699 34.3317 89.2577 34.2873C89.2435 34.2288 89.2273 34.1722 89.2131 34.1137C89.1969 34.0552 89.1807 33.9986 89.1644 33.9401C89.1583 33.9199 89.1522 33.8997 89.1462 33.8795C89.1441 33.8715 89.1421 33.8634 89.138 33.8553C89.1299 33.8271 89.1218 33.7988 89.1117 33.7685C89.0934 33.712 89.0751 33.6555 89.0569 33.5989C89.0386 33.5424 89.0183 33.4859 88.998 33.4294C88.9838 33.389 88.9696 33.3486 88.9534 33.3103C88.9514 33.3042 88.9494 33.2982 88.9473 33.2921C88.9433 33.282 88.9392 33.2719 88.9372 33.2618C88.9169 33.2053 88.8946 33.1508 88.8723 33.0943C88.8499 33.0377 88.8276 32.9832 88.8053 32.9267C88.781 32.8702 88.7586 32.8137 88.7323 32.7572C88.7302 32.7511 88.7282 32.7471 88.7241 32.741C88.7221 32.737 88.7201 32.7329 88.7181 32.7289C88.6978 32.6825 88.6775 32.636 88.6552 32.5896C88.6288 32.5331 88.6024 32.4745 88.574 32.418C88.5456 32.3595 88.5172 32.3029 88.4888 32.2444C88.4807 32.2283 88.4726 32.2121 88.4644 32.196C88.4604 32.1879 88.4563 32.1778 88.4523 32.1697C88.436 32.1374 88.4198 32.1051 88.4015 32.0728C88.3691 32.0123 88.3366 31.9517 88.3042 31.8911C88.2717 31.8306 88.2372 31.77 88.2027 31.7115C88.1926 31.6933 88.1824 31.6772 88.1723 31.659C88.1662 31.6489 88.1601 31.6388 88.154 31.6287C88.1337 31.5924 88.1134 31.5581 88.0911 31.5217C88.0526 31.4571 88.012 31.3925 87.9734 31.3279C87.9308 31.2593 87.8882 31.1927 87.8436 31.1261C87.8436 31.124 87.8416 31.124 87.8416 31.122C87.8395 31.12 87.8395 31.118 87.8375 31.116C87.7929 31.0473 87.7462 30.9787 87.6995 30.9121C87.6468 30.8354 87.592 30.7587 87.5372 30.684C87.5251 30.6678 87.5129 30.6537 87.5027 30.6375C87.4906 30.6214 87.4784 30.6052 87.4662 30.5891C87.4297 30.5406 87.3952 30.4922 87.3567 30.4437C87.2816 30.3448 87.2025 30.2479 87.1254 30.1551C87.1233 30.153 87.1213 30.149 87.1193 30.147C87.1071 30.1329 87.0929 30.1187 87.0807 30.1026C86.9935 29.9996 86.9062 29.8967 86.8149 29.7978C86.7947 29.7776 86.7744 29.7574 86.7561 29.7372C86.7176 29.6948 86.677 29.6544 86.6384 29.6141C86.5492 29.5232 86.4599 29.4324 86.3686 29.3456C86.326 29.3052 86.2834 29.2648 86.2408 29.2265C86.1373 29.1316 86.0338 29.0428 85.9283 28.9539C85.8999 28.9297 85.8715 28.9035 85.8411 28.8813C85.7173 28.7824 85.5915 28.6855 85.4637 28.5966C85.4515 28.5886 85.4414 28.5825 85.4292 28.5744C85.3967 28.5522 85.3622 28.53 85.3298 28.5078C85.2567 28.4594 85.1857 28.4089 85.1127 28.3645C85.0538 28.3282 84.995 28.2938 84.9382 28.2595L76.7495 32.9954C76.8814 33.0721 77.0133 33.1568 77.1411 33.2437C77.1736 33.2659 77.208 33.286 77.2405 33.3103C77.3825 33.4092 77.5185 33.5101 77.6524 33.6191Z" fill="#484849"/>
<path d="M76.7516 32.9975L28.636 5.35769C26.1141 3.90827 24.0608 5.07305 24.0527 7.95573L24.002 25.5142L25.2193 25.1933L25.2599 11.1473C25.2639 9.76851 26.2439 9.21539 27.4491 9.9078L77.9041 38.8921C79.1092 39.5845 80.0811 41.26 80.0791 42.6387L79.9776 77.9233C79.9756 78.3069 80.2475 78.7752 80.5843 78.969C80.919 79.1628 81.1929 79.0074 81.195 78.6238L81.3025 40.8441C81.3126 37.9615 79.2736 34.4469 76.7516 32.9975Z" fill="#4B4B4E"/>
</g>
<defs>
<clipPath id="clip0_119_16658">
<rect width="120" height="137" fill="white"/>
</clipPath>
</defs>
</svg>
