<svg width="112" height="112" viewBox="0 0 112 112" fill="none" xmlns="http://www.w3.org/2000/svg">
<path d="M101.174 79.1464L86.567 45.0331C81.6203 33.4598 72.5203 32.9931 66.407 44.0064L57.587 59.9198C53.107 67.9931 44.7536 68.6931 38.967 61.4598L37.9403 60.1531C31.9203 52.5931 23.427 53.5264 19.087 62.1598L11.0603 78.2598C5.41364 89.4598 13.5803 102.666 26.087 102.666H85.6336C97.767 102.666 105.934 90.2998 101.174 79.1464Z" stroke="#CECECE" stroke-width="2.5" stroke-linecap="round" stroke-linejoin="round"/>
<path d="M32.5273 37.3335C40.2593 37.3335 46.5273 31.0655 46.5273 23.3335C46.5273 15.6015 40.2593 9.3335 32.5273 9.3335C24.7954 9.3335 18.5273 15.6015 18.5273 23.3335C18.5273 31.0655 24.7954 37.3335 32.5273 37.3335Z" stroke="#CECECE" stroke-width="2.5" stroke-linecap="round" stroke-linejoin="round"/>
</svg>
