<svg width="25" height="24" viewBox="0 0 25 24" fill="none" xmlns="http://www.w3.org/2000/svg">
<path d="M13.8899 17.36L11.1399 14.61" stroke="white" stroke-width="1.7" stroke-miterlimit="10" stroke-linecap="round" stroke-linejoin="round"/>
<path d="M13.8601 14.64L11.1101 17.39" stroke="white" stroke-width="1.7" stroke-miterlimit="10" stroke-linecap="round" stroke-linejoin="round"/>
<path d="M9.30994 2L5.68994 5.63" stroke="white" stroke-width="1.7" stroke-miterlimit="10" stroke-linecap="round" stroke-linejoin="round"/>
<path d="M15.6899 2L19.3099 5.63" stroke="white" stroke-width="1.7" stroke-miterlimit="10" stroke-linecap="round" stroke-linejoin="round"/>
<path d="M2.5 7.85001C2.5 6.00001 3.49 5.85001 4.72 5.85001H20.28C21.51 5.85001 22.5 6.00001 22.5 7.85001C22.5 10 21.51 9.85001 20.28 9.85001H4.72C3.49 9.85001 2.5 10 2.5 7.85001Z" stroke="white" stroke-width="1.7"/>
<path d="M4 10L5.41 18.64C5.73 20.58 6.5 22 9.36 22H15.39C18.5 22 18.96 20.64 19.32 18.76L21 10" stroke="white" stroke-width="1.7" stroke-linecap="round"/>
</svg>
