<svg width="46" height="46" viewBox="0 0 46 46" fill="none" xmlns="http://www.w3.org/2000/svg">
<path d="M23.2296 24.4946C23.0954 24.4754 22.9229 24.4754 22.7696 24.4946C19.3962 24.3796 16.7129 21.6196 16.7129 18.2271C16.7129 14.7579 19.5112 11.9404 22.9996 11.9404C26.4687 11.9404 29.2862 14.7579 29.2862 18.2271C29.2671 21.6196 26.6029 24.3796 23.2296 24.4946Z" stroke="#CECECE" stroke-width="1.5" stroke-linecap="round" stroke-linejoin="round"/>
<path d="M35.9187 37.1452C32.507 40.2694 27.9837 42.1669 23.0004 42.1669C18.017 42.1669 13.4937 40.2694 10.082 37.1452C10.2737 35.3436 11.4237 33.5802 13.4745 32.2002C18.7262 28.7119 27.3129 28.7119 32.5262 32.2002C34.577 33.5802 35.727 35.3436 35.9187 37.1452Z" stroke="#CECECE" stroke-width="1.5" stroke-linecap="round" stroke-linejoin="round"/>
<path d="M22.9997 42.1663C33.5851 42.1663 42.1663 33.5851 42.1663 22.9997C42.1663 12.4142 33.5851 3.83301 22.9997 3.83301C12.4142 3.83301 3.83301 12.4142 3.83301 22.9997C3.83301 33.5851 12.4142 42.1663 22.9997 42.1663Z" stroke="#CECECE" stroke-width="1.5" stroke-linecap="round" stroke-linejoin="round"/>
</svg>
